<svg xmlns="http://www.w3.org/2000/svg" version="1.1" xmlns:xlink="http://www.w3.org/1999/xlink" width="512" height="512" x="0" y="0" viewBox="0 0 512 512" style="enable-background:new 0 0 512 512" xml:space="preserve"><g><circle cx="356" cy="124" r="28" fill="#D5D5D3" opacity="1" data-original="#d5d5d3"></circle><path fill="#D5D5D3" d="M408 200h-16v-21.194L361.753 141l12.494-10 32 40a8 8 0 0 1 1.753 5z" opacity="1" data-original="#d5d5d3"></path><path fill="#FDC8A2" d="m264 96-16 8v8a16 16 0 0 1-16 16h-48V48h64v24l5.33 8z" opacity="1" data-original="#fdc8a2"></path><path fill="#FDB683" d="M253.33 80H216V64h32v8z" opacity="1" data-original="#fdb683"></path><path fill="#C7483C" d="M40 352h56v48H40z" opacity="1" data-original="#c7483c"></path><circle cx="120" cy="432" r="56" fill="#34507B" opacity="1" data-original="#34507b"></circle><circle cx="120" cy="432" r="24" fill="#D5D5D3" opacity="1" data-original="#d5d5d3"></circle><path fill="#D65246" d="M40 136h96a16 16 0 0 1 16 16v112H24V152a16 16 0 0 1 16-16z" opacity="1" data-original="#d65246"></path><path fill="#DF6257" d="M48 192h16v48H48z" opacity="1" data-original="#df6257"></path><path fill="#C7483C" d="M24 160h128v16H24z" opacity="1" data-original="#c7483c"></path><path fill="#D65246" d="m311.029 408.971 49.942-49.942a24 24 0 0 0 7.029-16.97V280a32 32 0 0 1 32-32v40a40 40 0 0 0 40 40v32h-17.844a32 32 0 0 0-23.678 10.474l-60.956 67.052A32 32 0 0 1 313.844 448H24a105.442 105.442 0 0 1 86.58-103.742L112 344v-32h136a27.672 27.672 0 0 1-23.759 27.394A37.552 37.552 0 0 0 192 376.569v1.879A37.553 37.553 0 0 0 229.552 416h64.507a24 24 0 0 0 16.97-7.029z" opacity="1" data-original="#d65246"></path><path fill="#DF6257" d="M104.285 387.575 98.147 372.8a81.91 81.91 0 0 1 16.727-4.927l2.861 15.742a65.794 65.794 0 0 0-13.45 3.96zM70.522 419.487l-14.4-6.974a81.646 81.646 0 0 1 27.363-31.768l9.03 13.209a65.626 65.626 0 0 0-21.993 25.533z" opacity="1" data-original="#df6257"></path><path fill="#D5D5D3" d="M152 264H24a8 8 0 0 0-8 8v9.32a16.008 16.008 0 0 0 13.14 15.75l81.43 14.8a7.608 7.608 0 0 0 1.43.13h40a8 8 0 0 0 8-8v-32a8 8 0 0 0-8-8zm-8 32h-31.28L32 281.32V280h112z" opacity="1" data-original="#d5d5d3"></path><path fill="#D65246" d="M256 64h-40v19a21 21 0 0 1-32 17.89 20.611 20.611 0 0 1-3.09-2.32 20.9 20.9 0 0 1-6.8-13.48l-1.71-17.11A39.992 39.992 0 0 1 212.2 24h3.8a40 40 0 0 1 40 40z" opacity="1" data-original="#d65246"></path><path fill="#7A432A" d="M184 240v16a24 24 0 0 0 24 24h80l-40 104h40l37.6-90.517a38.658 38.658 0 0 0-2.388-34.441A38.655 38.655 0 0 0 289.9 240z" opacity="1" data-original="#7a432a"></path><path fill="#D65246" d="m280 184-48-56h-48v112h64v-40l8.971 8.971a24 24 0 0 0 16.97 7.029H352v-32zM368 248h64v-56h-14.111A28.944 28.944 0 0 0 392 208l-24 8z" opacity="1" data-original="#d65246"></path><path fill="#34507B" d="M488 432a55.967 55.967 0 1 1-.57-8 56 56 0 0 1 .57 8z" opacity="1" data-original="#34507b"></path><path fill="#2F486E" d="M487.43 424H424l-31.68 47.52A56 56 0 1 1 487.43 424z" opacity="1" data-original="#2f486e"></path><path fill="#CECECC" d="M455 432a24.025 24.025 0 1 1-1.38-8 23.6 23.6 0 0 1 1.38 8z" opacity="1" data-original="#cececc"></path><path fill="#C6C6C4" d="M453.62 424H424l-13.57 20.35A23.994 23.994 0 1 1 453.62 424z" opacity="1" data-original="#c6c6c4"></path><path fill="#D5D5D3" d="m396 419.151 24.5 24.5a14.849 14.849 0 0 0 21 0 14.849 14.849 0 0 0 0-21l-24.5-24.5z" opacity="1" data-original="#d5d5d3"></path><path fill="#D65246" d="M360 456h32l32-48h64a48 48 0 0 0-48-48h-16a64 64 0 0 0-64 64z" opacity="1" data-original="#d65246"></path><path fill="#FDC8A2" d="M352 184v32l16 8v16h32v-40z" opacity="1" data-original="#fdc8a2"></path><circle cx="368" cy="232" r="16" fill="#34507B" opacity="1" data-original="#34507b"></circle><g fill="#C7483C"><path d="M112 336h56v16h-56zM278.059 432H128v-16h166.059a24 24 0 0 0 16.97-7.029L312 408l-16.971 16.971a24 24 0 0 1-16.97 7.029zM424 352a72.1 72.1 0 0 0-70.98 60h16.289A56.088 56.088 0 0 1 424 368h16v-16z" fill="#C7483C" opacity="1" data-original="#c7483c"></path></g><rect width="96" height="32" x="152" y="280" fill="#34507B" rx="16" opacity="1" data-original="#34507b"></rect><path fill="#C7483C" d="m248 201.373-26.343-26.343-11.314 11.313L248 224z" opacity="1" data-original="#c7483c"></path><path fill="#D5D5D3" d="M248 384h48a16 16 0 0 1 16 16 16 16 0 0 1-16 16h-48v-32z" opacity="1" data-original="#d5d5d3"></path></g></svg>