<svg xmlns="http://www.w3.org/2000/svg" version="1.1" xmlns:xlink="http://www.w3.org/1999/xlink" width="512" height="512" x="0" y="0" viewBox="0 0 682.667 682.667" style="enable-background:new 0 0 512 512" xml:space="preserve"><g><defs><clipPath id="a" clipPathUnits="userSpaceOnUse"><path d="M0 512h512V0H0Z" fill="#000000" opacity="1" data-original="#000000"></path></clipPath></defs><g clip-path="url(#a)" transform="matrix(1.33333 0 0 -1.33333 0 682.667)"><path d="M0 0c-5.33 0-7.768-2.354-7.768-7.768v-102.36c0-26.505 21.459-47.991 47.964-47.991l77.584 1.615V0Z" style="fill-opacity:1;fill-rule:evenodd;stroke:none" transform="translate(25.697 346.37)" fill="#B4D9FC" data-original="#b4d9fc"></path><path d="M0 0c3.004-.709 6.094-1.162 9.298-1.275h3.912L88.782.283v156.504H36.936V46.716C36.936 24.011 21.175 4.989 0 0" style="fill-opacity:1;fill-rule:evenodd;stroke:none" transform="translate(54.695 189.583)" fill="#8AC7FD" data-original="#8ac7fd"></path><path d="M0 0h-158.515c26.504 0 47.992 21.486 47.992 47.991v220.283c0 26.505 21.486 47.963 47.99 47.963l47.991-.652z" style="fill-opacity:1;fill-rule:evenodd;stroke:none" transform="translate(224.407 188.251)" fill="#D9EBFC" data-original="#d9ebfc"></path><path d="M0 0h-38.835v268.274c0 22.31-15.222 41.046-35.858 46.432a49.12 49.12 0 0 0 12.16 1.531l47.991-.652z" style="fill-opacity:1;fill-rule:evenodd;stroke:none" transform="translate(224.407 188.251)" fill="#C2E3FF" data-original="#c2e3ff"></path><path d="M0 0v441.274c0 26.505-21.487 47.963-47.992 47.963h-284.233c26.476 0 47.963-21.458 47.963-47.963V0c0-5.301 2.608-6.576 7.058-4.535l21.403 9.779c4.62 2.098 9.496 2.125 14.144 0l21.402-9.779c4.876-2.24 9.582-2.07 14.117 0l21.402 9.779c4.762 2.183 9.694 2.041 14.145 0l21.402-9.779c4.818-2.212 9.637-2.041 14.116 0l21.402 9.779c4.989 2.296 9.525 2.098 14.145 0l21.374-9.779c5.074-2.325 9.723-2.014 14.145 0l21.402 9.779c4.705 2.154 9.581 2.068 14.116 0l21.402-9.779C-1.899-6.889 0-5.443 0 0" style="fill-opacity:1;fill-rule:evenodd;stroke:none" transform="translate(494.1 15.251)" fill="#F3FAFF" data-original="#f3faff"></path><path d="M0 0v441.274c0 26.505-21.487 47.963-47.992 47.963h-24.264c26.504 0 47.963-21.458 47.963-47.963V3.316l17.206-7.851C-1.899-6.889 0-5.443 0 0" style="fill-opacity:1;fill-rule:evenodd;stroke:none" transform="translate(494.1 15.251)" fill="#E9F4FF" data-original="#e9f4ff"></path><path d="M0 0h28.148c4.281 0 7.768-3.515 7.768-7.767v-28.147c0-4.281-3.487-7.768-7.768-7.768H0c-4.28 0-7.767 3.487-7.767 7.768v28.147C-7.767-3.515-4.28 0 0 0m0 77.643h28.148c4.281 0 7.768-3.488 7.768-7.767V41.728c0-4.252-3.487-7.768-7.768-7.768H0c-4.28 0-7.767 3.516-7.767 7.768v28.148c0 4.279 3.487 7.767 7.767 7.767M0-77.67h28.148c4.281 0 7.768-3.486 7.768-7.767v-28.148c0-4.28-3.487-7.767-7.768-7.767H0c-4.28 0-7.767 3.487-7.767 7.767v28.148c0 4.281 3.487 7.767 7.767 7.767" style="fill-opacity:1;fill-rule:evenodd;stroke:none" transform="translate(259.643 200.355)" fill="#2CCAA5" data-original="#2ccaa5"></path><path d="M0 0v32.429c-3.316-1.021-5.981-3.033-7.965-5.528-1.899-2.41-3.09-5.187-3.685-8.192-.567-2.892-.511-5.782.283-8.362.652-2.183 1.814-4.082 3.487-5.386C-5.697 3.26-3.09 1.616 0 0m14.996-22.479v-43.059c4.876 1.531 8.816 4.479 11.679 8.192 2.437 3.147 4.053 6.832 4.79 10.63.709 3.714.511 7.484-.652 10.943-2.692 7.852-8.646 10.686-15.817 13.294M0 56.921c0 4.139 3.345 7.483 7.512 7.483a7.476 7.476 0 0 0 7.484-7.483v-8.477c13.125-1.814 21.089-9.156 21.118-9.184 3.09-2.749 3.345-7.484.567-10.573-2.778-3.061-7.512-3.317-10.573-.567-.028.028-4.054 3.741-11.112 5.188V-6.52c2.409-.935 4.961-1.842 7.625-2.805 11.962-4.225 19.191-12.303 22.365-21.629 2.041-5.954 2.353-12.36 1.191-18.511-1.162-6.095-3.799-11.991-7.682-17.037-5.499-7.114-13.521-12.557-23.499-14.428v-10.063a7.477 7.477 0 0 0-7.484-7.484C3.345-98.477 0-95.132 0-90.993v9.468c-3.628.17-6.86.567-10.091 1.361-5.443 1.332-10.488 3.713-16.924 7.908-3.458 2.268-4.422 6.916-2.154 10.375 2.268 3.458 6.917 4.422 10.376 2.154 4.96-3.231 8.617-5.017 12.302-5.924 1.984-.482 4.082-.765 6.491-.908v49.976c-5.953 2.637-11.934 5.727-17.064 9.752-4.281 3.373-7.144 7.88-8.674 12.926-1.475 4.875-1.674 10.261-.625 15.506 1.021 5.187 3.346 10.375 6.634 14.541 3.798 4.847 9.014 8.73 15.59 10.687 1.418.425 2.779.793 4.139 1.049zm-20.296-209.653a7.476 7.476 0 0 0-7.484 7.483c0 4.139 3.345 7.512 7.484 7.512h133.74c4.139 0 7.512-3.373 7.512-7.512 0-4.139-3.373-7.483-7.512-7.483zm0-27.185a7.477 7.477 0 0 0-7.484 7.483c0 4.139 3.345 7.513 7.484 7.513H89.179c4.138 0 7.512-3.374 7.512-7.513 0-4.137-3.374-7.483-7.512-7.483zm0-50.485c-4.139 0-7.484 3.344-7.484 7.511a7.477 7.477 0 0 0 7.484 7.484h133.74c4.139 0 7.512-3.345 7.512-7.484a7.506 7.506 0 0 0-7.512-7.511zm0-27.185c-4.139 0-7.484 3.373-7.484 7.512a7.476 7.476 0 0 0 7.484 7.483H89.179c4.138 0 7.512-3.345 7.512-7.483 0-4.139-3.374-7.512-7.512-7.512zm0-50.486c-4.139 0-7.484 3.373-7.484 7.511 0 4.139 3.345 7.512 7.484 7.512h133.74c4.139 0 7.512-3.373 7.512-7.512 0-4.138-3.373-7.511-7.512-7.511zm0-27.156a7.477 7.477 0 0 0-7.484 7.484c0 4.139 3.345 7.512 7.484 7.512H89.179c4.138 0 7.512-3.373 7.512-7.512 0-4.139-3.374-7.484-7.512-7.484zm-36.255 190.746h-28.687v-28.687h28.687zm-36.171 14.995h43.682c4.139 0 7.484-3.373 7.484-7.512v-43.683a7.476 7.476 0 0 0-7.484-7.482h-43.682c-4.139 0-7.512 3.344-7.512 7.482V-137c0 4.139 3.373 7.512 7.512 7.512m36.171-92.666h-28.687v-28.687h28.687zm-36.171 14.996h43.682a7.478 7.478 0 0 0 7.484-7.485v-43.681c0-4.139-3.345-7.512-7.484-7.512h-43.682c-4.139 0-7.512 3.373-7.512 7.512v43.681c0 4.139 3.373 7.485 7.512 7.485m36.171-92.638h-28.687v-28.687h28.687zM-92.722-284.8h43.682c4.139 0 7.484-3.373 7.484-7.512v-43.682a7.477 7.477 0 0 0-7.484-7.484h-43.682c-4.139 0-7.512 3.345-7.512 7.484v43.682c0 4.139 3.373 7.512 7.512 7.512m-49.522-46.092c0 4.139 3.345 7.512 7.484 7.512 4.138 0 7.511-3.373 7.511-7.512v-64.971l24.917 11.395c2.041.936 4.309.851 6.208 0l32.429-14.825 32.428 14.825c2.041.936 4.309.851 6.208 0L7.37-399.293l32.429 14.825c2.041.936 4.309.851 6.208 0l32.429-14.825 32.429 14.825c2.041.936 4.308.851 6.208 0l24.916-11.395V41.528c0 11.168-4.535 21.288-11.849 28.603-7.342 7.341-17.461 11.877-28.63 11.877h-246.305c11.225-10.545 17.546-25.087 17.546-40.48v-338.432c0-4.139-3.373-7.512-7.511-7.512-4.139 0-7.484 3.373-7.484 7.512v62.675h-136.461c-15.308 0-29.169 6.208-39.232 16.242-10.035 10.035-16.243 23.925-16.243 39.232v38.069a7.507 7.507 0 0 0 7.512 7.513c4.139 0 7.484-3.346 7.484-7.513v-38.069c0-11.168 4.535-21.288 11.877-28.631 7.313-7.313 17.433-11.848 28.602-11.848 11.197 0 21.316 4.535 28.63 11.848 7.313 7.343 11.848 17.463 11.848 28.631v102.644h-80.957v-30.586c0-4.139-3.345-7.512-7.484-7.512-4.139 0-7.512 3.373-7.512 7.512v38.07a7.507 7.507 0 0 0 7.512 7.512h88.441v42.407c0 4.139 3.374 7.512 7.513 7.512 4.138 0 7.484-3.373 7.484-7.512v-160.047c0-15.307-6.208-29.197-16.244-39.232-.425-.425-.85-.822-1.275-1.247h98.505V41.528c0 11.168-4.535 21.288-11.878 28.603-7.313 7.341-17.433 11.877-28.601 11.877-11.197 0-21.317-4.536-28.631-11.877-7.341-7.315-11.876-17.435-11.876-28.603v-26.25c0-4.166-3.346-7.511-7.484-7.511a7.507 7.507 0 0 0-7.513 7.511v26.25c0 15.308 6.209 29.169 16.272 39.232 10.035 10.035 23.896 16.243 39.232 16.243H101.51c15.307 0 29.197-6.208 39.232-16.243 10.035-10.063 16.243-23.924 16.243-39.232v-449.042c0-5.329-5.641-9.042-10.602-6.802l-32.428 14.825-32.43-14.797a7.413 7.413 0 0 0-6.208-.028l-32.428 14.825-32.401-14.797c-1.927-.879-4.167-.964-6.236-.028l-32.429 14.825-32.4-14.797a7.477 7.477 0 0 0-6.236-.028l-32.4 14.825-31.834-14.542a7.476 7.476 0 0 0-3.713-.964 7.476 7.476 0 0 0-7.484 7.483z" style="fill-opacity:1;fill-rule:nonzero;stroke:none" transform="translate(344.598 414.997)" fill="#000000" data-original="#000000"></path></g></g></svg>