<svg xmlns="http://www.w3.org/2000/svg" version="1.1" xmlns:xlink="http://www.w3.org/1999/xlink" width="512" height="512" x="0" y="0" viewBox="0 0 512 512" style="enable-background:new 0 0 512 512" xml:space="preserve" class=""><g><path fill="#FA6931" d="m511.78 142.901-41.159-81.968a32.362 32.362 0 0 0-28.922-17.84H70.301a32.365 32.365 0 0 0-28.922 17.84L.22 142.901l35.784 15.39h439.992z" opacity="1" data-original="#fa6931"></path><path fill="#FC5327" d="M470.621 60.933a32.362 32.362 0 0 0-28.922-17.84h-36.172a32.365 32.365 0 0 1 28.922 17.84l41.159 81.968h36.171z" opacity="1" data-original="#fc5327"></path><path fill="#EEDFDA" d="M469.15 485.946H29.497V165.859H469.15z" opacity="1" data-original="#eedfda"></path><path fill="#DED0CB" d="M433.197 165.858h35.954v320.087h-35.954z" opacity="1" data-original="#ded0cb" class=""></path><path fill="#557981" d="M327.804 485.946h105.424V248.047a5.968 5.968 0 0 0-5.968-5.968h-93.487a5.968 5.968 0 0 0-5.968 5.968v237.899z" opacity="1" data-original="#557981"></path><path fill="#97E4F9" d="M62.42 485.946h230.869V248.047a5.968 5.968 0 0 0-5.968-5.968H68.388a5.968 5.968 0 0 0-5.968 5.968z" opacity="1" data-original="#97e4f9"></path><path fill="#97E4F9" d="M62.42 485.946h230.869V248.047a5.968 5.968 0 0 0-5.968-5.968H68.388a5.968 5.968 0 0 0-5.968 5.968z" opacity="1" data-original="#97e4f9"></path><path fill="#62D8F9" d="M287.32 242.078h-37.289a5.968 5.968 0 0 1 5.968 5.968v237.898h37.289V248.047a5.968 5.968 0 0 0-5.968-5.969z" opacity="1" data-original="#62d8f9"></path><path fill="#FC5327" d="M469.15 208.259c23.544 0 42.63-19.086 42.63-42.63v-22.727h-85.26v22.727c0 23.543 19.086 42.63 42.63 42.63z" opacity="1" data-original="#fc5327"></path><path fill="#ED4322" d="M383.89 208.259c23.544 0 42.63-19.086 42.63-42.63v-22.727h-85.26v22.727c0 23.543 19.086 42.63 42.63 42.63z" opacity="1" data-original="#ed4322"></path><path fill="#FC5327" d="M298.63 208.259c23.544 0 42.63-19.086 42.63-42.63v-22.727H256v22.727c0 23.543 19.086 42.63 42.63 42.63z" opacity="1" data-original="#fc5327"></path><path fill="#ED4322" d="M213.37 208.259c23.544 0 42.63-19.086 42.63-42.63v-22.727h-85.26v22.727c0 23.543 19.086 42.63 42.63 42.63z" opacity="1" data-original="#ed4322"></path><path fill="#FC5327" d="M128.11 208.259c23.544 0 42.63-19.086 42.63-42.63v-22.727H85.48v22.727c0 23.543 19.086 42.63 42.63 42.63z" opacity="1" data-original="#fc5327"></path><path fill="#ED4322" d="M42.85 208.259c23.544 0 42.63-19.086 42.63-42.63v-22.727H.22v22.727c0 23.543 19.086 42.63 42.63 42.63z" opacity="1" data-original="#ed4322"></path><path fill="#FA6931" d="M13.793 512h484.414c7.496 0 13.573-6.077 13.573-13.573v-24.962c0-7.496-6.077-13.573-13.573-13.573H13.793c-7.496 0-13.573 6.077-13.573 13.573v24.962C.22 505.923 6.297 512 13.793 512z" opacity="1" data-original="#fa6931"></path><path fill="#E5ECF1" d="M293.289 459.891H62.42v-57.179h230.869z" opacity="1" data-original="#e5ecf1"></path><path fill="#C9E2E7" d="M256 402.712h37.289v57.179H256z" opacity="1" data-original="#c9e2e7" class=""></path><path fill="#EEDFDA" d="M225.729 295.855a7.725 7.725 0 0 0 7.726-7.726v-46.05h-15.453v46.05a7.727 7.727 0 0 0 7.727 7.726z" opacity="1" data-original="#eedfda"></path><path fill="#FBD307" d="m250.725 309.782-17.705-26.461c-3.474-5.192-11.108-5.192-14.582 0l-17.705 26.461c-1.638 2.448.117 5.734 3.062 5.734h43.868c2.945 0 4.7-3.286 3.062-5.734z" opacity="1" data-original="#fbd307"></path><path fill="#EEDFDA" d="M129.98 295.855a7.725 7.725 0 0 0 7.726-7.726v-46.05h-15.453v46.05a7.727 7.727 0 0 0 7.727 7.726z" opacity="1" data-original="#eedfda"></path><path fill="#FBD307" d="m154.976 309.782-17.705-26.461c-3.474-5.192-11.108-5.192-14.582 0l-17.705 26.461c-1.638 2.448.117 5.734 3.062 5.734h43.868c2.945 0 4.7-3.286 3.062-5.734z" opacity="1" data-original="#fbd307"></path><path fill="#C9E2E7" d="M361.255 370.463a7.725 7.725 0 0 1-7.726-7.726v-26.311a7.726 7.726 0 1 1 15.452 0v26.311a7.726 7.726 0 0 1-7.726 7.726z" opacity="1" data-original="#c9e2e7" class=""></path><path fill="#FBA615" d="M342.088 86.186H169.912c-9.08 0-16.441-7.361-16.441-16.441V16.441c0-9.08 7.361-16.441 16.441-16.441h172.176c9.08 0 16.441 7.361 16.441 16.441v53.303c0 9.081-7.361 16.442-16.441 16.442z" opacity="1" data-original="#fba615"></path><path fill="#FA9801" d="M342.088 0h-36.82c9.08 0 16.441 7.361 16.441 16.441v69.745h20.378c9.08 0 16.441-7.361 16.441-16.441V16.441C358.529 7.361 351.168 0 342.088 0z" opacity="1" data-original="#fa9801"></path><path fill="#ED4322" d="M475.609 142.901v22.727c0 17.077-10.045 31.8-24.544 38.605a42.454 42.454 0 0 0 18.086 4.025c23.544 0 42.63-19.086 42.63-42.63v-22.727z" opacity="1" data-original="#ed4322"></path></g></svg>