<svg xmlns="http://www.w3.org/2000/svg" version="1.1" xmlns:xlink="http://www.w3.org/1999/xlink" width="512" height="512" x="0" y="0" viewBox="0 0 511.999 511.999" style="enable-background:new 0 0 512 512" xml:space="preserve"><g><path d="M64.909 251.393C40.189 276.214 40.106 305.83 96.189 345c63.652 44.457 209.17-49.938 265.212-26.352 56.042 23.586 191.119.568 106.109-131.368C400.816 83.772 441.869 14.846 334.898 1.23s-213.969 88.751-209.99 160.163c3.98 71.412-37.032 66.939-59.999 90z" style="" fill="#79A1E8" data-original="#79a1e8"></path><path d="M322.447 387.231H63.729c-14.034 0-25.411-11.377-25.411-25.411V102.272c0-14.034 11.377-25.411 25.411-25.411h258.718c14.034 0 25.411 11.377 25.411 25.411v259.547c.001 14.035-11.376 25.412-25.411 25.412z" style="" fill="#473CBA" data-original="#473cba"></path><path d="M305.251 387.231H46.532c-14.034 0-25.411-11.377-25.411-25.411V102.272c0-14.034 11.377-25.411 25.411-25.411H305.25c14.034 0 25.411 11.377 25.411 25.411v259.547c.001 14.035-11.376 25.412-25.41 25.412z" style="" fill="#D7ECF9" data-original="#d7ecf9"></path><path d="M305.251 76.861h-5.899l-278.23 278.23v6.729c0 14.034 11.377 25.412 25.411 25.412h258.718c14.034 0 25.411-11.377 25.411-25.412V102.272c0-14.034-11.377-25.411-25.411-25.411z" style="" fill="#B3D4E5" data-original="#b3d4e5"></path><path d="M330.662 102.272c0-14.034-11.377-25.411-25.411-25.411H46.532c-14.034 0-25.411 11.377-25.411 25.411v16.92h309.541v-16.92z" style="" fill="#F9D015" data-original="#f9d015"></path><path d="M330.662 102.272c0-14.034-11.377-25.411-25.411-25.411h-5.899l-42.331 42.331h73.642v-16.92z" style="" fill="#FBB03B" data-original="#fbb03b"></path><path d="M322.447 72.86H46.533c-16.218 0-29.412 13.193-29.412 29.411v259.548c0 16.218 13.194 29.411 29.412 29.411H322.447c16.218 0 29.412-13.193 29.412-29.411V102.271c0-16.217-13.194-29.411-29.412-29.411zM25.121 102.271c0-11.806 9.605-21.411 21.412-21.411h258.718c11.806 0 21.411 9.605 21.411 21.411v12.921H25.121v-12.921zM46.533 383.23c-11.807 0-21.412-9.605-21.412-21.411V123.192h301.541v238.627c0 11.806-9.605 21.411-21.411 21.411H46.533zm297.326-21.411c0 10.709-7.912 19.582-18.194 21.142 5.541-5.352 8.996-12.849 8.996-21.142V102.271c0-8.294-3.456-15.791-8.996-21.142 10.281 1.56 18.194 10.432 18.194 21.142v259.548z" style="" fill="#4B31AA" data-original="#4b31aa"></path><path d="M51.216 90.058c-4.576 0-8.299 3.723-8.299 8.299s3.723 8.299 8.299 8.299 8.299-3.723 8.299-8.299c-.001-4.577-3.723-8.299-8.299-8.299zM77.01 90.058c-4.576 0-8.299 3.723-8.299 8.299s3.723 8.299 8.299 8.299 8.299-3.723 8.299-8.299c0-4.577-3.722-8.299-8.299-8.299zM102.805 90.058c-4.576 0-8.299 3.723-8.299 8.299s3.723 8.299 8.299 8.299 8.3-3.723 8.3-8.299c0-4.577-3.723-8.299-8.3-8.299z" style="" fill="#4B31AA" data-original="#4b31aa"></path><path d="M170.545 229H71.879c-9.573 0-17.333-7.76-17.333-17.333 0-9.573 7.76-17.333 17.333-17.333h98.667c9.573 0 17.333 7.76 17.333 17.333 0 9.573-7.761 17.333-17.334 17.333z" style="" fill="#79A1E8" data-original="#79a1e8"></path><path d="M170.546 233H71.879c-11.763 0-21.333-9.57-21.333-21.333 0-11.764 9.57-21.334 21.333-21.334h98.667c11.763 0 21.333 9.57 21.333 21.334 0 11.763-9.571 21.333-21.333 21.333zm-98.667-34.667c-7.352 0-13.333 5.981-13.333 13.334 0 7.352 5.981 13.333 13.333 13.333h98.667c7.352 0 13.333-5.981 13.333-13.333s-5.981-13.334-13.333-13.334H71.879z" style="" fill="#4B31AA" data-original="#4b31aa"></path><path d="M170.545 278.333H71.879c-9.573 0-17.333-7.76-17.333-17.333 0-9.573 7.76-17.333 17.333-17.333h98.667c9.573 0 17.333 7.76 17.333 17.333 0 9.573-7.761 17.333-17.334 17.333z" style="" fill="#79A1E8" data-original="#79a1e8"></path><path d="M170.546 282.333H71.879c-11.763 0-21.333-9.57-21.333-21.333 0-11.763 9.57-21.333 21.333-21.333h98.667c11.763 0 21.333 9.57 21.333 21.333 0 11.763-9.571 21.333-21.333 21.333zm-98.667-34.666c-7.352 0-13.333 5.981-13.333 13.333s5.981 13.333 13.333 13.333h98.667c7.352 0 13.333-5.981 13.333-13.333s-5.981-13.333-13.333-13.333H71.879z" style="" fill="#4B31AA" data-original="#4b31aa"></path><path d="M171.377 319.396H120.38c-7.183 0-13.006-5.823-13.006-13.005 0-7.183 5.823-13.005 13.006-13.005h50.997c7.183 0 13.005 5.823 13.005 13.005s-5.822 13.005-13.005 13.005z" style="" fill="#F7931E" data-original="#f7931e"></path><path d="M171.377 323.397h-50.996c-9.377 0-17.006-7.629-17.006-17.006s7.629-17.006 17.006-17.006h50.996c9.377 0 17.006 7.629 17.006 17.006-.001 9.376-7.629 17.006-17.006 17.006zm-50.996-26.012c-4.966 0-9.006 4.04-9.006 9.006s4.04 9.006 9.006 9.006h50.996c4.966 0 9.006-4.04 9.006-9.006s-4.04-9.006-9.006-9.006h-50.996zM131.879 216H72.546a4 4 0 0 1 0-8h59.333a4 4 0 0 1 0 8zM73.129 265.25h-.583a4 4 0 0 1 0-8h.583a4 4 0 0 1 0 8zM89.195 265.25h-.583a4 4 0 0 1 0-8h.583a4 4 0 0 1 0 8zM105.262 265.25h-.584a4 4 0 0 1 0-8h.584a4 4 0 0 1 0 8zM121.329 265.25h-.584a4 4 0 0 1 0-8h.584a4 4 0 0 1 0 8zM137.395 265.25h-.583a4 4 0 0 1 0-8h.583a4 4 0 0 1 0 8zM153.462 265.25h-.583a4 4 0 0 1 0-8h.583a4 4 0 0 1 0 8z" style="" fill="#4B31AA" data-original="#4b31aa"></path><ellipse cx="346.491" cy="502.764" rx="81" ry="9.235" style="" fill="#473CBA" data-original="#473cba"></ellipse><ellipse cx="181.685" cy="434" rx="157.806" ry="8" style="" fill="#473CBA" data-original="#473cba"></ellipse><path d="M425.062 442.692H292.874c-11.129 0-20.151-9.022-20.151-20.151V276.754h172.489v145.787c.001 11.13-9.021 20.151-20.15 20.151z" style="" fill="#473CBA" data-original="#473cba"></path><path d="M397.657 442.692H265.469c-11.129 0-20.151-9.022-20.151-20.151V276.754h172.489v145.787c.001 11.13-9.021 20.151-20.15 20.151z" style="" fill="#FFFFFF" data-original="#ffffff"></path><path d="M390.791 276.754 245.319 422.227v.315c0 11.129 9.022 20.151 20.151 20.151h132.188c11.129 0 20.15-9.022 20.15-20.151V276.754h-27.017z" style="" fill="#CFDDF7" data-original="#cfddf7"></path><path d="M345.018 153.99c-33.468 0-60.598 27.131-60.598 60.598v62.167h27.761v-61.807c0-18.135 14.701-32.837 32.837-32.837 18.135 0 32.837 14.702 32.837 32.837v61.807h27.761v-62.167c0-33.468-27.131-60.598-60.598-60.598z" style="" fill="#473CBA" data-original="#473cba"></path><path d="M337.352 153.99c-33.467 0-60.598 27.131-60.598 60.598v62.167h27.761v-61.807c0-18.135 14.701-32.837 32.837-32.837 18.135 0 32.837 14.702 32.837 32.837v61.807h27.761v-62.167c0-33.468-27.131-60.598-60.598-60.598z" style="" fill="#FBB03B" data-original="#fbb03b"></path><path d="M425.062 446.692c13.316 0 24.15-10.834 24.15-24.15V276.754a4 4 0 0 0-4-4h-35.597v-58.166c0-35.62-28.978-64.599-64.598-64.599h-7.666c-35.62 0-64.599 28.978-64.599 64.599v58.166h-27.435a4 4 0 0 0-4 4v145.788c0 13.316 10.834 24.15 24.15 24.15h159.595zm-83.849-288.594c29.412 1.993 52.737 26.58 52.737 56.49v58.166H374.19v-57.807c0-15.15-9.043-28.56-22.297-33.84-3.448-1.374-8.566-3.137-14.54-2.997-20.306.475-36.837 16.525-36.837 36.837v57.807h-19.762v-58.166c0-30.276 23.895-55.035 53.817-56.49h6.642zm-25.032 56.849c0-14.6 10.91-26.693 25.004-28.574 14.094 1.881 25.004 13.974 25.004 28.574v57.807h-50.008v-57.807zm97.627 65.807v141.788c0 8.905-7.245 16.15-16.151 16.15H265.469c-8.905 0-16.15-7.245-16.15-16.15V280.754h164.489zm27.404 141.788c0 8.905-7.245 16.15-16.15 16.15h-9.467c3.859-4.282 6.213-9.946 6.213-16.15V280.754h19.404v141.788z" style="" fill="#4B31AA" data-original="#4b31aa"></path><path d="M374.374 373.758h-86.729c-11.949 0-21.635-9.687-21.635-21.635 0-11.949 9.687-21.635 21.635-21.635h86.729c11.949 0 21.635 9.686 21.635 21.635 0 11.949-9.686 21.635-21.635 21.635z" style="" fill="#F9D015" data-original="#f9d015"></path><path d="M374.374 330.487h-37.316l-43.271 43.271h80.587c11.949 0 21.636-9.687 21.636-21.636 0-11.948-9.687-21.635-21.636-21.635z" style="" fill="#FBB03B" data-original="#fbb03b"></path><path d="M374.374 377.758h-86.728c-14.136 0-25.636-11.5-25.636-25.635 0-14.136 11.5-25.636 25.636-25.636h86.728c14.136 0 25.636 11.5 25.636 25.636-.001 14.135-11.501 25.635-25.636 25.635zm-86.729-43.271c-9.725 0-17.636 7.911-17.636 17.636 0 9.724 7.911 17.635 17.636 17.635h86.729c9.725 0 17.636-7.911 17.636-17.635 0-9.725-7.911-17.636-17.636-17.636h-86.729z" style="" fill="#4B31AA" data-original="#4b31aa"></path><path d="m298.271 353.595-1.996-1.152 1.996-1.152a3 3 0 0 0 1.098-4.098 2.998 2.998 0 0 0-4.098-1.098l-1.995 1.152v-2.304a3 3 0 1 0-6 0v2.304l-1.995-1.152a3 3 0 1 0-3 5.196l1.996 1.152-1.996 1.152a3 3 0 0 0 1.503 5.599c.509 0 1.024-.13 1.497-.403l1.995-1.152v2.304a3 3 0 1 0 6 0v-2.304l1.995 1.152a2.998 2.998 0 0 0 4.098-1.098 3 3 0 0 0-1.098-4.098zM325.32 353.595l-1.996-1.152 1.996-1.152a3 3 0 0 0 1.098-4.098 2.998 2.998 0 0 0-4.098-1.098l-1.995 1.152v-2.304a3 3 0 1 0-6 0v2.304l-1.995-1.152a3 3 0 1 0-3 5.196l1.996 1.152-1.996 1.152a3 3 0 0 0 1.503 5.599c.509 0 1.024-.13 1.497-.403l1.995-1.152v2.304a3 3 0 1 0 6 0v-2.304l1.995 1.152a2.998 2.998 0 0 0 4.098-1.098 3 3 0 0 0-1.098-4.098zM352.369 353.595l-1.996-1.152 1.996-1.152a3 3 0 0 0 1.098-4.098 2.998 2.998 0 0 0-4.098-1.098l-1.995 1.152v-2.304a3 3 0 1 0-6 0v2.304l-1.995-1.152a3 3 0 1 0-3 5.196l1.996 1.152-1.996 1.152a3 3 0 0 0 1.503 5.599c.509 0 1.024-.13 1.497-.403l1.995-1.152v2.304a3 3 0 1 0 6 0v-2.304l1.995 1.152a2.998 2.998 0 0 0 4.098-1.098 3 3 0 0 0-1.098-4.098zM379.418 353.595l-1.996-1.152 1.996-1.152a3 3 0 0 0 1.098-4.098 2.998 2.998 0 0 0-4.098-1.098l-1.995 1.152v-2.304a3 3 0 1 0-6 0v2.304l-1.995-1.152a3 3 0 1 0-3 5.196l1.996 1.152-1.996 1.152a3 3 0 0 0 1.503 5.599c.509 0 1.024-.13 1.497-.403l1.995-1.152v2.304a3 3 0 1 0 6 0v-2.304l1.995 1.152a2.998 2.998 0 0 0 4.098-1.098 3 3 0 0 0-1.098-4.098z" style="" fill="#4B31AA" data-original="#4b31aa"></path></g></svg>