<?xml version="1.0" encoding="utf-8"?>
<!-- Generator: Adobe Illustrator 27.5.0, SVG Export Plug-In . SVG Version: 6.00 Build 0)  -->
<svg version="1.1" xmlns="http://www.w3.org/2000/svg" xmlns:xlink="http://www.w3.org/1999/xlink" x="0px" y="0px"
	 viewBox="0 0 500 500" style="enable-background:new 0 0 500 500;" xml:space="preserve">
<g id="Floor">
	<path id="Floor_7_" style="fill:#F5F5F5;" d="M90.765,438.752c89.661,52.065,235.032,52.067,324.692,0.001
		c89.662-52.067,89.662-136.482,0-188.548c-89.661-52.066-235.032-52.066-324.693-0.001C1.102,302.27,1.102,386.686,90.765,438.752z
		"/>
</g>
<g id="Shadow_1_">
	<ellipse id="Shadow" style="fill:#E0E0E0;" cx="421.368" cy="356.737" rx="40.466" ry="23.363"/>
</g>
<g id="Plants">
	<g id="Plants_13_">
		<g id="XMLID_2536_">
			<g id="XMLID_2539_">
				<path id="XMLID_2543_" style="fill:#27DEBF;" d="M69.241,366.201c0,0-1.702-14.971-9.149-26.591
					c-7.447-11.619-17.68-18.871-27.228-19.626c-9.548-0.755-17.259,8.029-7.043,14.062c10.216,6.032,28.366,12.188,36.718,34.75
					L69.241,366.201z"/>
				<path id="XMLID_2541_" style="opacity:0.1;" d="M69.241,366.201c0,0-1.702-14.971-9.149-26.591
					c-7.447-11.619-17.68-18.871-27.228-19.626c-9.548-0.755-17.259,8.029-7.043,14.062c10.216,6.032,28.366,12.188,36.718,34.75
					L69.241,366.201z"/>
			</g>
			<g id="XMLID_2537_">
				<path id="XMLID_2538_" style="fill:#FFFFFF;" d="M66.441,362.313c0.034-0.006,0.068-0.016,0.101-0.03
					c0.261-0.106,0.387-0.403,0.28-0.664c-10.075-24.814-29.257-35.175-37.992-37.186c-0.273-0.065-0.547,0.108-0.611,0.382
					c-0.063,0.275,0.108,0.549,0.382,0.612c8.557,1.97,27.359,12.152,37.276,36.576C65.971,362.231,66.209,362.355,66.441,362.313z"
					/>
			</g>
		</g>
		<g id="XMLID_2528_">
			<g id="XMLID_2533_">
				<g id="XMLID_2534_">
					<path id="XMLID_2535_" style="fill:#27DEBF;" d="M15.44,362.606c0.865,1.949,2.992,2.964,4.972,3.762
						c1.969,0.79,4.127,1.653,5.197,3.496c2.155,3.722-1.383,8.956,0.93,12.58c0.971,1.52,2.777,2.32,4.552,2.639
						c1.475,0.276,2.977,0.274,4.473,0.4c0.72-0.015,1.432-0.067,2.126-0.165c2.052-0.298,4.279-0.394,6.159,0.656
						c2.958,1.663,3.867,5.398,5.664,8.279c2.154,3.449,5.963,5.707,9.965,6.251c1.33,0.176,3.803,0.415,5.157-0.34
						c0.107-0.059,0.194-0.114,0.28-0.178c0.009-0.002,0.017-0.013,0.025-0.024c0.186-0.21,0.42-0.477,0.52-0.622
						c0.025-0.024,0.039-0.056,0.053-0.088c0.524-1.93-0.332-3.939-0.366-5.933c-0.004-0.126-0.005-0.243,0.002-0.362
						c0.082-2.318,0.148-4.622,0.202-6.934c0.108-4.254,0.156-8.516,0.127-12.774c-0.029-2.765,0.304-5.792-0.866-8.397
						c-1.296-2.865-4.517-2.928-5.735-5.739c-0.488-1.12-0.747-2.322-1.219-3.454c-1.409-3.322-4.822-5.711-8.435-5.888
						c-5.623-0.286-10.671,4.268-16.289,3.854c-1.455-0.114-2.873-0.556-4.306-0.82c-4.556-0.853-9.821,0.444-12.382,4.299
						C15.175,358.714,14.657,360.838,15.44,362.606z"/>
				</g>
			</g>
			<g id="XMLID_2531_">
				<path id="XMLID_2532_" style="fill:#FFFFFF;" d="M65.972,390.392c0.013-0.002,0.026-0.006,0.038-0.009
					c0.255-0.068,0.408-0.331,0.339-0.587c-7.771-29.156-38.49-33.37-45.677-32.85c-0.26,0.021-0.462,0.249-0.444,0.513
					c0.019,0.264,0.249,0.463,0.513,0.444c7.031-0.507,37.078,3.615,44.682,32.141C65.488,390.287,65.729,390.436,65.972,390.392z"
					/>
			</g>
			<g id="XMLID_2529_">
				<path id="XMLID_2530_" style="fill:#FFFFFF;" d="M31.841,375.618c0.093-0.017,0.182-0.062,0.254-0.134
					c0.077-0.078,7.911-7.802,20.905-5.889c0.262,0.035,0.507-0.142,0.545-0.405c0.039-0.262-0.143-0.506-0.405-0.545
					c-13.496-1.984-21.647,6.082-21.728,6.164c-0.187,0.189-0.184,0.492,0.003,0.679C31.532,375.601,31.691,375.645,31.841,375.618z
					"/>
			</g>
		</g>
	</g>
</g>
<g id="Window">
	<g id="XMLID_418_">
		<g id="XMLID_2041_">
			<path id="XMLID_2150_" style="fill:#27DEBF;" d="M65.142,404.568c-1.227-0.708-2.222-2.508-2.222-4.018l-0.001-218.845
				c0-1.511,1.06-3.348,2.369-4.103L322.75,28.966c1.308-0.755,3.364-0.793,4.591-0.085c1.227,0.708,2.222,2.507,2.222,4.018
				l0.001,218.845c0,1.511-1.061,3.348-2.369,4.103L69.732,404.483C68.424,405.238,66.369,405.276,65.142,404.568z"/>
			<path id="XMLID_2149_" style="opacity:0.3;fill:#FFFFFF;" d="M329.536,32.513c-0.164-1.225-1.16-1.674-2.341-0.985
				L69.731,180.166c-0.646,0.383-1.236,1.028-1.674,1.772l-4.442-2.571c0.438-0.744,1.018-1.379,1.674-1.762L322.753,28.968
				c1.302-0.755,3.359-0.799,4.584-0.087C328.464,29.537,329.394,31.091,329.536,32.513z"/>
			<path id="XMLID_2148_" style="fill:#37474F;" d="M69.282,404.688c-0.033,0.011-0.066,0.033-0.098,0.033
				c-0.077,0.044-0.153,0.066-0.23,0.088c-0.055,0.022-0.109,0.044-0.175,0.055c-0.099,0.033-0.208,0.066-0.328,0.077
				c-0.066,0.022-0.142,0.044-0.219,0.044c-0.109,0.022-0.241,0.044-0.361,0.055c-0.974,0.109-1.991-0.044-2.724-0.471
				c-1.236-0.711-2.221-2.505-2.221-4.015L62.915,209.76l4.453,2.571v190.781c0,1.072,0.536,1.696,1.313,1.696
				c0.109,0,0.208-0.011,0.317-0.044c0.022,0,0.033,0,0.055-0.011C69.129,404.743,69.205,404.721,69.282,404.688z"/>
			<path id="XMLID_2147_" style="opacity:0.1;" d="M68.057,181.938c-0.427,0.733-0.689,1.576-0.689,2.33v28.063l-4.453-2.571
				v-28.052c0-0.098,0-0.186,0.011-0.284c0.022-0.197,0.055-0.394,0.098-0.591c0.12-0.492,0.328-1.007,0.591-1.466L68.057,181.938z"
				/>
			<path id="XMLID_2146_" style="fill:#27DEBF;" d="M329.558,32.896v12.659L140.835,154.509c-1.302,0.755-2.363,0.142-2.363-1.368
				v-4.792c0-1.51-1.061-2.122-2.374-1.368l-57.472,33.184c-1.313,0.755-2.374,2.593-2.374,4.103v4.792
				c0,1.51-1.061,3.348-2.363,4.103l-6.521,3.764v-12.658c0-1.51,1.061-3.348,2.363-4.103L327.195,31.528
				C328.497,30.774,329.558,31.386,329.558,32.896z"/>
			<path id="XMLID_2145_" style="fill:#455A64;" d="M329.569,251.74c0,1.51-1.061,3.348-2.374,4.103L69.731,404.48
				c-1.302,0.755-2.363,0.142-2.363-1.368V196.927l6.521-3.764c1.302-0.755,3.424-12.243,4.737-12.998l56.511-32.629
				c1.313-0.755,4.397,7.727,5.699,6.972L329.558,45.555v15.405L329.569,251.74z"/>
			<path id="XMLID_2144_" style="fill:#F0F0F0;" d="M329.558,45.555v15.405L67.368,212.332v-15.405l4.87-2.82
				c1.302-0.755,1.74-1.903,2.363-4.103l1.651-5.735c0.521-1.991,1.061-3.348,2.374-4.103l56.511-32.629
				c1.313-0.755,2.337-0.838,3.336,0.813l2.026,3.677c0.743,1.284,1.115,2.039,2.417,1.284L329.558,45.555z"/>
			<g id="XMLID_2140_">
				<path id="XMLID_2143_" style="fill:#FFFFFF;" d="M318.452,40.835c1.646-0.95,2.981-0.18,2.981,1.721
					c0,1.901-1.335,4.212-2.981,5.163c-1.646,0.95-2.981,0.18-2.981-1.721C315.471,44.097,316.806,41.785,318.452,40.835z"/>
				<path id="XMLID_2142_" style="fill:#FFFFFF;" d="M307.721,47.022c1.646-0.951,2.981-0.18,2.981,1.721
					c0,1.901-1.335,4.212-2.981,5.163c-1.646,0.95-2.981,0.18-2.981-1.721C304.74,50.284,306.075,47.972,307.721,47.022z"/>
				<path id="XMLID_2141_" style="fill:#FFFFFF;" d="M296.99,53.209c1.646-0.95,2.981-0.18,2.981,1.721
					c0,1.901-1.335,4.212-2.981,5.163c-1.646,0.95-2.981,0.18-2.981-1.721C294.009,56.471,295.343,54.159,296.99,53.209z"/>
			</g>
			<path id="XMLID_2139_" style="opacity:0.5;fill:#455A64;" d="M78.233,198.038l-3.719,2.147l1.418-2.727
				c0.125-0.239,0.137-0.538,0.028-0.666c-0.109-0.13-0.298-0.038-0.422,0.2l-2.017,3.881c-0.003,0.005-0.003,0.01-0.006,0.015
				c-0.022,0.045-0.039,0.093-0.054,0.143c-0.005,0.016-0.013,0.031-0.017,0.047c-0.016,0.066-0.026,0.134-0.026,0.201
				s0.01,0.123,0.026,0.17c0.004,0.012,0.012,0.018,0.017,0.028c0.015,0.032,0.032,0.062,0.054,0.081
				c0.002,0.002,0.003,0.007,0.006,0.008l2.017,1.551c0.057,0.044,0.127,0.041,0.197,0c0.083-0.048,0.166-0.149,0.225-0.287
				c0.109-0.255,0.096-0.538-0.028-0.634l-1.418-1.09l3.719-2.147c0.165-0.095,0.299-0.379,0.299-0.633
				C78.532,198.071,78.399,197.942,78.233,198.038z"/>
			<path id="XMLID_2138_" style="opacity:0.5;fill:#455A64;" d="M81.339,196.244l3.719-2.147l-1.418-1.09
				c-0.124-0.096-0.137-0.379-0.028-0.634c0.109-0.255,0.298-0.382,0.422-0.287l2.018,1.551c0.002,0.002,0.003,0.006,0.006,0.008
				c0.022,0.019,0.039,0.049,0.054,0.081c0.005,0.01,0.012,0.016,0.017,0.028c0.016,0.048,0.026,0.104,0.026,0.17
				s-0.01,0.134-0.026,0.2c-0.004,0.016-0.012,0.031-0.017,0.047c-0.015,0.05-0.032,0.098-0.054,0.143
				c-0.002,0.005-0.003,0.01-0.006,0.015l-2.018,3.881c-0.057,0.109-0.127,0.187-0.197,0.227c-0.083,0.048-0.166,0.043-0.225-0.027
				c-0.109-0.129-0.096-0.427,0.028-0.666l1.418-2.727l-3.719,2.147c-0.165,0.095-0.299-0.033-0.299-0.288
				C81.04,196.623,81.174,196.34,81.339,196.244z"/>
			<path id="XMLID_2137_" style="opacity:0.5;fill:#455A64;" d="M93.538,185.536c-0.023-0.225-0.218-0.195-0.317,0.048l-0.51,1.245
				c-0.868-0.094-1.921,0.754-2.632,2.259c-0.921,1.95-0.921,4.257,0,5.143c0.46,0.443,1.065,0.448,1.671,0.099
				c0.605-0.349,1.209-1.053,1.67-2.027c0.117-0.247,0.117-0.539,0-0.651c-0.117-0.113-0.306-0.003-0.423,0.244
				c-0.688,1.454-1.807,2.102-2.494,1.44c-0.688-0.662-0.688-2.385,0-3.841c0.489-1.036,1.193-1.648,1.808-1.686l-0.384,0.939
				c-0.1,0.243-0.008,0.471,0.148,0.368l1.517-0.99c0.106-0.07,0.185-0.263,0.17-0.416L93.538,185.536z"/>
			<path id="XMLID_2136_" style="opacity:0.5;fill:#455A64;" d="M133.506,154.568l1.355-2.87c0.16-0.339,0.16-0.739,0-0.893
				c-0.16-0.154-0.42-0.004-0.58,0.335l-1.355,2.87l-1.355-1.305c-0.16-0.154-0.42-0.004-0.58,0.335c-0.16,0.339-0.16,0.739,0,0.893
				l1.355,1.305l-1.355,2.87c-0.16,0.339-0.16,0.739,0,0.893c0.08,0.077,0.185,0.078,0.29,0.018c0.105-0.061,0.21-0.183,0.29-0.353
				l1.355-2.87l1.355,1.304c0.08,0.077,0.185,0.078,0.29,0.018c0.105-0.061,0.21-0.183,0.29-0.353c0.16-0.339,0.16-0.739,0-0.893
				L133.506,154.568z"/>
			<path id="XMLID_2135_" style="fill:#FFFFFF;" d="M98.473,189.064v-4.793c0-1.511,1.061-3.348,2.369-4.103l213.02-122.923
				c1.308-0.755,2.369-0.143,2.369,1.368l0,4.793c0,1.511-1.061,3.347-2.369,4.103L100.841,190.431
				C99.533,191.186,98.473,190.574,98.473,189.064z"/>
			<g id="XMLID_2134_">
				<path id="XMLID_958_" style="fill:#E0E0E0;" d="M310.638,67.777c-0.064,0-0.123-0.013-0.174-0.034
					c-0.17-0.07-0.337-0.269-0.296-0.614l0.238-1.985c0.001-0.009,0.002-0.014,0.004-0.016l-0.961-0.694
					c-0.133-0.096-0.208-0.255-0.211-0.449c-0.005-0.283,0.137-0.584,0.352-0.75l1.391-1.073c0.03-0.023,0.072-0.082,0.095-0.158
					l0.622-2.039c0.102-0.335,0.349-0.573,0.614-0.592c0.19-0.017,0.364,0.09,0.45,0.271v0l0.561,1.192l1.261-0.484
					c0.193-0.073,0.39-0.027,0.518,0.118c0.175,0.198,0.182,0.539,0.018,0.847l-1.006,1.889c-0.037,0.069-0.049,0.139-0.044,0.174
					l0.238,1.709c0.042,0.301-0.105,0.603-0.269,0.77c-0.139,0.141-0.306,0.208-0.469,0.187l-1.244-0.154l-1.211,1.618
					C310.962,67.706,310.788,67.777,310.638,67.777z M309.862,63.962l0.96,0.693c0.159,0.115,0.233,0.321,0.204,0.563l-0.196,1.638
					l1.038-1.32c0.148-0.191,0.34-0.286,0.533-0.263l1.246,0.154c-0.02-0.021,0.056-0.163,0.043-0.252l-0.238-1.71
					c-0.024-0.174,0.017-0.375,0.111-0.552l1.005-1.886l-1.152,0.442c-0.244,0.093-0.488-0.005-0.597-0.239l-0.518-1.101
					c-0.002,0.006-0.004,0.012-0.006,0.018l-0.622,2.04c-0.059,0.192-0.172,0.363-0.311,0.47l-1.391,1.073
					C309.906,63.78,309.865,63.898,309.862,63.962z"/>
			</g>
			<g id="XMLID_2106_" style="opacity:0.5;">
				<g id="XMLID_2132_">
					<path id="XMLID_2133_" style="fill:#455A64;" d="M319.023,56.66c-0.284,0-0.56-0.147-0.711-0.41
						c-0.227-0.393-0.092-0.894,0.3-1.121l6.666-3.849c0.394-0.227,0.894-0.092,1.121,0.3c0.227,0.393,0.092,0.894-0.3,1.121
						l-6.666,3.849C319.303,56.624,319.162,56.66,319.023,56.66z"/>
				</g>
				<g id="XMLID_2120_">
					<path id="XMLID_2121_" style="fill:#455A64;" d="M319.023,60.51c-0.284,0-0.56-0.147-0.711-0.41
						c-0.227-0.393-0.092-0.894,0.3-1.121l6.666-3.849c0.394-0.229,0.894-0.092,1.121,0.3c0.227,0.393,0.092,0.894-0.3,1.121
						l-6.666,3.849C319.303,60.474,319.162,60.51,319.023,60.51z"/>
				</g>
				<g id="XMLID_2107_">
					<path id="XMLID_2108_" style="fill:#455A64;" d="M319.023,64.36c-0.284,0-0.56-0.147-0.711-0.41
						c-0.227-0.393-0.092-0.894,0.3-1.121l6.666-3.849c0.394-0.229,0.894-0.092,1.121,0.3c0.227,0.393,0.092,0.894-0.3,1.121
						l-6.666,3.849C319.303,64.325,319.162,64.36,319.023,64.36z"/>
				</g>
			</g>
			<polygon id="XMLID_2105_" style="fill:#E0E0E0;" points="67.368,196.927 67.368,212.332 62.915,209.76 62.915,194.367 			"/>
		</g>
		<g id="XMLID_414_">
			<path id="XMLID_2283_" style="fill:#FAFAFA;" d="M81.161,214.495L315.256,79.341c1.77-1.022,3.205-0.194,3.205,1.85l0,47.3
				c0,2.044-1.435,4.529-3.205,5.551L81.16,269.196c-1.77,1.022-3.205,0.193-3.205-1.85l0.001-47.3
				C77.956,218.002,79.391,215.517,81.161,214.495z"/>
			<polygon id="XMLID_2285_" style="fill:#27DEBF;" points="87.013,238.035 87.015,231.092 83.969,232.833 89.981,222.419 
				95.994,225.89 93.026,227.604 93.027,234.564 			"/>
			<g>
				<path style="fill:#37474F;" d="M85.004,251.696c0.352-0.203,0.527-0.555,0.527-1.059v-0.463c0-0.803-0.274-1.046-0.82-0.73
					v-1.012c0.296-0.17,0.514-0.423,0.654-0.758c0.13-0.304,0.194-0.661,0.194-1.073v-0.181c0-0.512-0.146-0.684-0.438-0.515
					c-0.162,0.094-0.281,0.257-0.356,0.491c-0.057,0.178-0.085,0.383-0.085,0.614v0.205l-0.751,0.434v-0.182
					c0-0.558,0.092-1.065,0.275-1.521c0.208-0.521,0.502-0.891,0.881-1.109c0.359-0.207,0.648-0.186,0.864,0.064
					c0.195,0.225,0.293,0.591,0.293,1.095v0.33c0,0.488-0.095,0.963-0.284,1.426c-0.082,0.197-0.177,0.379-0.284,0.545
					c0.227,0.065,0.402,0.262,0.527,0.59c0.064,0.166,0.098,0.395,0.098,0.688v0.618c0,0.579-0.129,1.128-0.386,1.647
					c-0.246,0.5-0.543,0.851-0.89,1.051c-0.338,0.194-0.625,0.178-0.859-0.054c-0.235-0.23-0.354-0.602-0.354-1.114v-0.193
					l0.73-0.51l0.017,0.266c0.011,0.189,0.056,0.323,0.136,0.402C84.773,251.767,84.877,251.77,85.004,251.696z"/>
				<path style="fill:#37474F;" d="M87.771,244.569v1.681c0.076-0.21,0.183-0.401,0.321-0.573c0.073-0.087,0.159-0.16,0.256-0.216
					c0.337-0.194,0.585-0.156,0.745,0.114c0.139,0.232,0.207,0.634,0.207,1.204v1.688c0,0.578-0.118,1.122-0.356,1.63
					c-0.228,0.489-0.515,0.835-0.86,1.035c-0.336,0.193-0.614,0.166-0.836-0.08c-0.214-0.235-0.321-0.611-0.321-1.128v-0.188
					l0.735-0.511l0.016,0.26c0.02,0.301,0.102,0.461,0.248,0.481c0.043,0.009,0.089-0.002,0.138-0.03
					c0.313-0.181,0.471-0.523,0.471-1.027v-1.919c0-0.229-0.055-0.387-0.163-0.474c-0.052-0.041-0.124-0.035-0.216,0.018
					c-0.137,0.079-0.237,0.219-0.303,0.419c-0.055,0.173-0.081,0.338-0.081,0.497v0.212l-0.768,0.443v-4.28l2.244-1.296v1.188
					L87.771,244.569z"/>
				<path style="fill:#37474F;" d="M89.829,248.861l0.767-0.443v1.181l-0.767,0.443V248.861z"/>
				<path style="fill:#37474F;" d="M92.638,242.522v-0.194c0-0.191-0.033-0.333-0.1-0.427c-0.066-0.093-0.16-0.104-0.282-0.033
					c-0.121,0.07-0.216,0.189-0.282,0.359c-0.065,0.17-0.1,0.35-0.1,0.541v1.563c0.176-0.344,0.37-0.575,0.581-0.697
					c0.338-0.195,0.591-0.16,0.759,0.105c0.148,0.23,0.223,0.627,0.223,1.189v1.344l-0.004,0.002
					c-0.016,0.51-0.133,0.995-0.351,1.459c-0.218,0.463-0.485,0.785-0.802,0.969c-0.338,0.195-0.617,0.17-0.836-0.073
					c-0.214-0.235-0.32-0.611-0.32-1.128v-4.273c0-0.384,0.06-0.764,0.181-1.141c0.12-0.379,0.291-0.707,0.513-0.984
					c0.141-0.181,0.295-0.32,0.463-0.417c0.335-0.194,0.614-0.167,0.836,0.08c0.214,0.235,0.32,0.611,0.32,1.128v0.169
					L92.638,242.522z M91.874,247.049c0,0.191,0.031,0.331,0.094,0.42c0.068,0.099,0.164,0.111,0.286,0.041
					c0.122-0.07,0.218-0.193,0.285-0.371c0.065-0.162,0.099-0.34,0.099-0.531v-1.449c0-0.226-0.055-0.381-0.163-0.468
					c-0.053-0.042-0.124-0.035-0.217,0.019c-0.133,0.076-0.233,0.216-0.302,0.417c-0.055,0.165-0.082,0.329-0.082,0.491V247.049z"/>
				<path style="fill:#37474F;" d="M94.861,244.647v2.482l-0.767,0.443v-7.835l0.767-0.443v2.793l0.938-3.335l0.817-0.472
					l-1.05,3.801l1.231,3.93l-0.901,0.52l-0.806-2.716L94.861,244.647z"/>
			</g>
			<g id="XMLID_2287_">
				<path id="XMLID_957_" style="fill:#E0E0E0;" d="M102.006,254.738c-0.115,0-0.208-0.093-0.208-0.208v-48.598
					c0-0.115,0.093-0.208,0.208-0.208c0.115,0,0.208,0.093,0.208,0.208v48.598C102.214,254.645,102.121,254.738,102.006,254.738z"/>
			</g>
			<path id="XMLID_2286_" style="fill:#27DEBF;" d="M113.046,202.476c1.945-1.123,3.522-0.213,3.522,2.034
				c0,2.247-1.577,4.978-3.522,6.102c-1.945,1.123-3.522,0.213-3.522-2.034S111.1,203.6,113.046,202.476z"/>
			<path id="XMLID_2334_" style="fill:#455A64;" d="M120.044,202.464c0,0.959,0.861,1.239,1.923,0.626l62.294-35.965
				c1.062-0.613,1.923-1.887,1.923-2.846c0-0.959-0.861-1.239-1.923-0.626l-62.294,35.964
				C120.905,200.231,120.044,201.505,120.044,202.464z"/>
			<path id="XMLID_2351_" style="fill:#E0E0E0;" d="M109.523,220.671c0,0.959,0.861,1.239,1.923,0.626l144.965-83.677
				c1.062-0.613,1.923-1.887,1.923-2.846c0-0.959-0.861-1.239-1.923-0.626l-144.965,83.676
				C110.384,218.438,109.523,219.712,109.523,220.671z"/>
			<path id="XMLID_2352_" style="fill:#E0E0E0;" d="M109.523,227.644c0,0.959,0.861,1.239,1.923,0.626l144.965-83.677
				c1.062-0.613,1.923-1.887,1.923-2.846c0-0.959-0.861-1.239-1.923-0.625l-144.965,83.676
				C110.384,225.411,109.523,226.685,109.523,227.644z"/>
			<path id="XMLID_2353_" style="fill:#E0E0E0;" d="M109.523,234.617c0,0.959,0.861,1.239,1.923,0.626l144.965-83.677
				c1.062-0.613,1.923-1.887,1.923-2.846s-0.861-1.239-1.923-0.626l-144.965,83.676
				C110.384,232.384,109.523,233.658,109.523,234.617z"/>
			<path id="XMLID_408_" style="fill:#E0E0E0;" d="M117.918,239.636c0,0.959,0.861,1.239,1.923,0.626l7.821-4.504
				c1.062-0.613,1.923-1.887,1.923-2.846c0-0.959-0.861-1.239-1.923-0.625l-7.821,4.503
				C118.779,237.403,117.918,238.677,117.918,239.636z"/>
			<path id="XMLID_409_" style="fill:#E0E0E0;" d="M142.154,225.5c0,0.959,0.861,1.239,1.923,0.626l7.821-4.504
				c1.062-0.613,1.923-1.887,1.923-2.846c0-0.959-0.861-1.239-1.923-0.626l-7.821,4.503
				C143.015,223.267,142.154,224.541,142.154,225.5z"/>
			<g id="XMLID_405_">
				<path id="XMLID_2354_" style="fill:#EBEBEB;" d="M109.523,245.956v-3.68c0-0.409,0.287-0.905,0.642-1.108l4.765-2.734
					c0.355-0.203,0.642-0.037,0.642,0.372v3.68c0,0.409-0.287,0.905-0.642,1.109l-4.765,2.734
					C109.811,246.531,109.523,246.365,109.523,245.956z"/>
				<polygon id="XMLID_404_" style="fill:#EBEBEB;" points="111.768,245.259 113.328,244.357 112.553,246.611 				"/>
			</g>
			<path id="XMLID_4970_" style="fill:#EBEBEB;" d="M135.872,227.102l0.628,0.564c-2.112,3.184-1.365,4.661,0.479,5.383
				c-0.609-0.679-0.425-2.689,0.724-4.302l0.628,0.564c0.123,0.111,0.433-0.074,0.505-0.3l1.06-3.363
				c0.049-0.154-0.049-0.242-0.21-0.189l-3.518,1.155C135.93,226.691,135.749,226.992,135.872,227.102z"/>
			<g id="XMLID_407_">
				<path id="XMLID_413_" style="fill:#27DEBF;" d="M270.153,112.34l39.664-22.899c0.558-0.322,1.01-0.061,1.01,0.583v39.236
					c0,0.644-0.452,1.427-1.01,1.749l-39.663,22.9c-0.558,0.322-1.01,0.061-1.01-0.583l-0.001-39.237
					C269.143,113.445,269.595,112.662,270.153,112.34z"/>
				<path id="XMLID_412_" style="opacity:0.8;fill:#FFFFFF;" d="M270.153,112.34l39.664-22.899c0.558-0.322,1.01-0.061,1.01,0.583
					v39.236c0,0.644-0.452,1.427-1.01,1.749l-39.663,22.9c-0.558,0.322-1.01,0.061-1.01-0.583l-0.001-39.237
					C269.143,113.445,269.595,112.662,270.153,112.34z"/>
				<path id="XMLID_411_" style="fill:#27DEBF;" d="M299.762,111.698l-6.626,11.729l4.657,6.037l-15.387-13.259l-13.262,28.713
					l0,8.407c0,0.644,0.452,0.905,1.01,0.583l39.663-22.9c0.558-0.322,1.01-1.105,1.01-1.749v-7.445L299.762,111.698z"/>
				<path id="XMLID_410_" style="fill:#27DEBF;" d="M301.352,99.629c1.65-0.953,2.987-0.181,2.987,1.725
					c0,1.905-1.337,4.222-2.987,5.175c-1.65,0.953-2.987,0.181-2.987-1.725C298.365,102.898,299.702,100.581,301.352,99.629z"/>
			</g>
		</g>
		<g id="XMLID_417_">
			<path id="XMLID_2158_" style="fill:#FAFAFA;" d="M81.14,331.656l234.094-135.154c1.77-1.022,3.205-0.193,3.205,1.85l0,47.3
				c0,2.044-1.435,4.529-3.205,5.551L81.138,386.357c-1.77,1.022-3.205,0.194-3.205-1.85l0.001-47.3
				C77.935,335.163,79.37,332.677,81.14,331.656z"/>
			<polygon id="XMLID_2157_" style="fill:#455A64;" points="86.992,355.196 86.993,348.252 83.947,349.994 89.96,339.579 
				95.973,343.051 93.004,344.764 93.006,351.724 			"/>
			<g>
				<path style="fill:#37474F;" d="M83.802,365.039c0-0.742,0.13-1.384,0.39-1.925c0.225-0.476,0.52-0.818,0.885-1.029
					c0.336-0.194,0.622-0.165,0.858,0.085c0.237,0.251,0.355,0.635,0.355,1.151c0,0.533-0.077,1.093-0.231,1.677
					c-0.084,0.323-0.28,0.909-0.589,1.758c-0.083,0.231-0.208,0.589-0.373,1.071l-0.138,0.398c-0.09,0.261-0.157,0.464-0.203,0.611
					c-0.021,0.074-0.032,0.117-0.032,0.131l1.506-0.869v1.156l-2.439,1.408v-1.084c0-0.024,0.056-0.201,0.167-0.528
					c0.052-0.149,0.11-0.317,0.176-0.501l0.199-0.557c0.117-0.315,0.3-0.813,0.549-1.498c0.235-0.643,0.411-1.205,0.528-1.685
					c0.095-0.393,0.142-0.734,0.142-1.025c0-0.237-0.043-0.415-0.13-0.532c-0.095-0.119-0.216-0.137-0.365-0.051
					c-0.213,0.124-0.365,0.4-0.454,0.831c-0.029,0.143-0.045,0.302-0.045,0.476v0.301l-0.755,0.435V365.039z"/>
				<path style="fill:#37474F;" d="M88.01,367.107c0.352-0.203,0.528-0.556,0.528-1.06v-0.462c0-0.803-0.273-1.046-0.82-0.73v-1.012
					c0.295-0.171,0.513-0.423,0.654-0.759c0.13-0.303,0.194-0.661,0.194-1.073v-0.181c0-0.512-0.146-0.684-0.438-0.515
					c-0.162,0.094-0.281,0.258-0.357,0.491c-0.057,0.179-0.085,0.384-0.085,0.615v0.205l-0.751,0.434v-0.182
					c0-0.558,0.093-1.065,0.276-1.521c0.208-0.52,0.502-0.89,0.881-1.108c0.359-0.208,0.648-0.187,0.864,0.063
					c0.194,0.226,0.292,0.59,0.292,1.094v0.331c0,0.487-0.095,0.963-0.284,1.426c-0.081,0.197-0.176,0.379-0.284,0.545
					c0.228,0.065,0.403,0.262,0.528,0.589c0.064,0.167,0.097,0.396,0.097,0.688v0.619c0,0.578-0.128,1.127-0.386,1.646
					c-0.246,0.501-0.542,0.851-0.889,1.051c-0.338,0.195-0.625,0.178-0.86-0.053c-0.235-0.23-0.353-0.603-0.353-1.115v-0.193
					l0.73-0.51l0.017,0.267c0.01,0.189,0.056,0.323,0.136,0.401C87.779,367.177,87.884,367.18,88.01,367.107z"/>
				<path style="fill:#37474F;" d="M89.833,366.004l0.767-0.442v1.181l-0.767,0.443V366.004z"/>
				<path style="fill:#37474F;" d="M93.619,363.207c0,0.521-0.119,1.03-0.357,1.531c-0.238,0.5-0.524,0.847-0.86,1.04l-0.062,0.035
					c-0.337,0.195-0.625,0.178-0.859-0.053c-0.235-0.231-0.354-0.603-0.354-1.115v-0.712c0-0.479,0.104-0.957,0.313-1.436
					c0.09-0.205,0.193-0.393,0.313-0.562c-0.206-0.044-0.365-0.222-0.479-0.535c-0.057-0.163-0.085-0.393-0.085-0.689v-0.425
					c0-0.509,0.097-0.985,0.292-1.431c0.216-0.5,0.503-0.854,0.859-1.06l0.062-0.035c0.359-0.208,0.648-0.186,0.864,0.064
					c0.195,0.226,0.293,0.59,0.293,1.094v0.425c0,0.487-0.095,0.946-0.284,1.376c-0.085,0.19-0.178,0.357-0.28,0.498
					c0.227,0.065,0.403,0.262,0.527,0.59c0.065,0.166,0.098,0.396,0.098,0.688V363.207z M92.876,359.633
					c-0.006-0.533-0.115-0.806-0.328-0.818c-0.049-0.006-0.107,0.012-0.175,0.051c-0.133,0.076-0.241,0.194-0.325,0.355
					c-0.067,0.13-0.115,0.275-0.144,0.435c-0.028,0.159-0.04,0.347-0.034,0.559c0.008,0.337,0.043,0.562,0.105,0.675
					c0.081,0.152,0.213,0.176,0.397,0.069c0.184-0.106,0.317-0.289,0.401-0.55C92.846,360.19,92.879,359.93,92.876,359.633z
					 M92.852,363.094c0-0.467-0.069-0.74-0.207-0.818c-0.064-0.038-0.155-0.023-0.271,0.045c-0.203,0.117-0.341,0.329-0.414,0.639
					c-0.043,0.188-0.064,0.416-0.064,0.688v0.375c0,0.258,0.051,0.435,0.153,0.535c0.087,0.084,0.195,0.092,0.325,0.025
					c0.208-0.137,0.353-0.379,0.435-0.726c0.029-0.118,0.044-0.247,0.044-0.388V363.094z"/>
				<path style="fill:#37474F;" d="M95.056,361.68v2.484l-0.767,0.442v-7.835l0.767-0.443v2.793l0.938-3.334l0.817-0.472
					l-1.049,3.802l1.23,3.929l-0.901,0.521l-0.806-2.716L95.056,361.68z"/>
			</g>
			<g id="XMLID_2155_">
				<path id="XMLID_868_" style="fill:#E0E0E0;" d="M101.984,371.899c-0.115,0-0.208-0.094-0.208-0.208v-48.599
					c0-0.115,0.093-0.208,0.208-0.208c0.115,0,0.208,0.093,0.208,0.208v48.599C102.192,371.806,102.1,371.899,101.984,371.899z"/>
			</g>
			<path id="XMLID_2154_" style="fill:#27DEBF;" d="M113.024,319.637c1.945-1.123,3.522-0.213,3.522,2.034
				c0,2.246-1.577,4.978-3.522,6.102c-1.946,1.123-3.522,0.213-3.522-2.034S111.079,320.76,113.024,319.637z"/>
			<path id="XMLID_2153_" style="fill:#455A64;" d="M120.022,319.625c0,0.959,0.861,1.239,1.923,0.626l62.294-35.965
				c1.062-0.613,1.923-1.887,1.923-2.846c0-0.959-0.861-1.239-1.923-0.626l-62.294,35.964
				C120.883,317.392,120.022,318.666,120.022,319.625z"/>
			<path id="XMLID_2152_" style="fill:#E0E0E0;" d="M109.502,337.832c0,0.959,0.861,1.239,1.923,0.626l144.965-83.677
				c1.062-0.613,1.923-1.887,1.923-2.846c0-0.958-0.861-1.239-1.923-0.626l-144.965,83.676
				C110.363,335.599,109.502,336.873,109.502,337.832z"/>
			<path id="XMLID_2151_" style="fill:#E0E0E0;" d="M109.502,344.805c0,0.959,0.861,1.239,1.923,0.626l144.965-83.677
				c1.062-0.613,1.923-1.887,1.923-2.846c0-0.959-0.861-1.239-1.923-0.625l-144.965,83.676
				C110.363,342.572,109.502,343.846,109.502,344.805z"/>
			<path id="XMLID_2039_" style="fill:#E0E0E0;" d="M109.502,351.778c0,0.959,0.861,1.239,1.923,0.626l144.965-83.677
				c1.062-0.613,1.923-1.887,1.923-2.846c0-0.959-0.861-1.239-1.923-0.626l-144.965,83.676
				C110.363,349.545,109.502,350.819,109.502,351.778z"/>
			<path id="XMLID_2038_" style="fill:#E0E0E0;" d="M117.897,356.796c0,0.959,0.861,1.239,1.923,0.626l7.821-4.504
				c1.062-0.613,1.923-1.887,1.923-2.846c0-0.959-0.861-1.239-1.923-0.626l-7.821,4.503
				C118.758,354.563,117.897,355.837,117.897,356.796z"/>
			<path id="XMLID_2037_" style="fill:#E0E0E0;" d="M142.133,342.66c0,0.959,0.861,1.239,1.923,0.626l7.821-4.504
				c1.062-0.613,1.923-1.887,1.923-2.846c0-0.959-0.861-1.239-1.923-0.626l-7.821,4.503
				C142.994,340.427,142.133,341.702,142.133,342.66z"/>
			<g id="XMLID_2033_">
				<path id="XMLID_2036_" style="fill:#EBEBEB;" d="M109.502,363.117v-3.68c0-0.409,0.287-0.905,0.642-1.108l4.765-2.734
					c0.354-0.204,0.642-0.037,0.642,0.372v3.679c0,0.409-0.287,0.905-0.642,1.109l-4.765,2.734
					C109.789,363.692,109.502,363.525,109.502,363.117z"/>
				<polygon id="XMLID_2035_" style="fill:#EBEBEB;" points="111.746,362.42 113.306,361.518 112.532,363.772 				"/>
			</g>
			<path id="XMLID_2031_" style="fill:#EBEBEB;" d="M135.85,344.263l0.628,0.564c-2.112,3.184-1.365,4.661,0.479,5.383
				c-0.609-0.679-0.425-2.689,0.724-4.302l0.628,0.564c0.123,0.11,0.434-0.074,0.505-0.3l1.06-3.363
				c0.049-0.154-0.049-0.242-0.21-0.189l-3.518,1.155C135.908,343.852,135.727,344.152,135.85,344.263z"/>
			<g id="XMLID_1985_">
				<path id="XMLID_2019_" style="fill:#27DEBF;" d="M270.131,229.501l39.664-22.899c0.558-0.322,1.01-0.061,1.01,0.583v39.236
					c0,0.644-0.452,1.427-1.01,1.749l-39.663,22.9c-0.558,0.322-1.01,0.061-1.01-0.583l-0.001-39.236
					C269.121,230.606,269.573,229.823,270.131,229.501z"/>
				<path id="XMLID_2001_" style="opacity:0.8;fill:#FFFFFF;" d="M270.131,229.501l39.664-22.899c0.558-0.322,1.01-0.061,1.01,0.583
					v39.236c0,0.644-0.452,1.427-1.01,1.749l-39.663,22.9c-0.558,0.322-1.01,0.061-1.01-0.583l-0.001-39.236
					C269.121,230.606,269.573,229.823,270.131,229.501z"/>
				<path id="XMLID_2000_" style="fill:#27DEBF;" d="M299.741,228.859l-6.627,11.729l4.657,6.038l-15.387-13.259l-13.262,28.713
					l0,8.407c0,0.644,0.452,0.905,1.01,0.583l39.663-22.9c0.558-0.322,1.01-1.105,1.01-1.749v-7.446L299.741,228.859z"/>
				<path id="XMLID_1988_" style="fill:#27DEBF;" d="M301.331,216.789c1.65-0.953,2.987-0.181,2.987,1.724
					c0,1.905-1.337,4.222-2.987,5.175c-1.65,0.953-2.987,0.181-2.987-1.725C298.344,220.059,299.681,217.742,301.331,216.789z"/>
			</g>
		</g>
		<g id="XMLID_416_">
			<path id="XMLID_2027_" style="fill:#FAFAFA;" d="M81.161,277.01l234.095-135.154c1.77-1.022,3.205-0.193,3.205,1.85l0.001,39.431
				c0,2.044-1.435,4.529-3.205,5.551L81.161,323.842c-1.77,1.022-3.205,0.194-3.205-1.85l0-39.431
				C77.956,280.517,79.391,278.032,81.161,277.01z"/>
			<polygon id="XMLID_2026_" style="fill:#455A64;" points="87.013,295.03 87.015,288.086 83.969,289.828 89.981,279.414 
				95.994,282.885 93.026,284.599 93.027,291.559 			"/>
			<g>
				<path style="fill:#37474F;" d="M83.823,304.874c0-0.742,0.13-1.383,0.39-1.925c0.224-0.476,0.519-0.818,0.884-1.029
					c0.336-0.193,0.622-0.164,0.858,0.086c0.237,0.251,0.355,0.635,0.355,1.151c0,0.533-0.077,1.092-0.231,1.676
					c-0.084,0.324-0.28,0.91-0.588,1.758c-0.084,0.233-0.209,0.59-0.374,1.072l-0.138,0.398c-0.089,0.26-0.157,0.463-0.203,0.611
					c-0.021,0.074-0.032,0.117-0.032,0.131l1.506-0.869v1.156l-2.439,1.408v-1.084c0-0.025,0.056-0.201,0.168-0.528
					c0.051-0.15,0.109-0.317,0.175-0.501l0.199-0.558c0.117-0.313,0.3-0.813,0.549-1.497c0.236-0.645,0.412-1.205,0.528-1.686
					c0.095-0.393,0.143-0.734,0.143-1.025c0-0.236-0.044-0.414-0.13-0.531c-0.095-0.12-0.217-0.137-0.365-0.051
					c-0.214,0.123-0.366,0.4-0.455,0.831c-0.029,0.142-0.044,0.301-0.044,0.475v0.3l-0.755,0.437V304.874z"/>
				<path style="fill:#37474F;" d="M89.33,305.531c0,0.521-0.119,1.03-0.357,1.531c-0.238,0.5-0.525,0.846-0.86,1.04l-0.062,0.035
					c-0.338,0.195-0.625,0.178-0.859-0.054c-0.236-0.229-0.354-0.602-0.354-1.114v-0.712c0-0.479,0.104-0.958,0.313-1.436
					c0.089-0.205,0.193-0.393,0.313-0.563c-0.206-0.043-0.365-0.221-0.479-0.534c-0.057-0.164-0.085-0.393-0.085-0.688v-0.425
					c0-0.509,0.098-0.985,0.293-1.432c0.216-0.5,0.503-0.853,0.859-1.059l0.062-0.035c0.359-0.208,0.648-0.186,0.864,0.064
					c0.194,0.225,0.292,0.59,0.292,1.094v0.425c0,0.487-0.094,0.946-0.283,1.376c-0.085,0.189-0.178,0.355-0.28,0.498
					c0.227,0.065,0.403,0.262,0.527,0.59c0.065,0.166,0.098,0.396,0.098,0.688V305.531z M88.587,301.957
					c-0.006-0.533-0.115-0.806-0.328-0.819c-0.049-0.005-0.107,0.013-0.175,0.052c-0.133,0.076-0.241,0.194-0.325,0.355
					c-0.067,0.129-0.115,0.275-0.144,0.434c-0.028,0.16-0.04,0.347-0.035,0.56c0.009,0.336,0.044,0.561,0.106,0.675
					c0.081,0.152,0.213,0.175,0.397,0.068c0.184-0.105,0.317-0.289,0.401-0.549C88.556,302.513,88.59,302.254,88.587,301.957z
					 M88.563,305.418c0-0.467-0.069-0.739-0.207-0.817c-0.064-0.038-0.155-0.022-0.271,0.045c-0.203,0.117-0.341,0.329-0.414,0.638
					c-0.043,0.188-0.064,0.417-0.064,0.688v0.375c0,0.258,0.051,0.436,0.153,0.535c0.087,0.083,0.195,0.091,0.325,0.025
					c0.208-0.138,0.353-0.379,0.434-0.725c0.03-0.118,0.045-0.247,0.045-0.389V305.418z"/>
				<path style="fill:#37474F;" d="M89.857,305.838l0.767-0.443v1.182l-0.767,0.442V305.838z"/>
				<path style="fill:#37474F;" d="M91.164,300.635c0-0.742,0.13-1.383,0.39-1.925c0.225-0.475,0.519-0.818,0.885-1.029
					c0.335-0.193,0.621-0.165,0.858,0.085c0.236,0.252,0.355,0.635,0.355,1.152c0,0.533-0.078,1.092-0.231,1.676
					c-0.084,0.324-0.28,0.91-0.589,1.758c-0.084,0.232-0.208,0.59-0.373,1.072l-0.138,0.399c-0.09,0.26-0.157,0.463-0.203,0.611
					c-0.021,0.073-0.033,0.117-0.033,0.131l1.506-0.869v1.156l-2.438,1.408v-1.084c0-0.025,0.056-0.201,0.167-0.529
					c0.052-0.149,0.11-0.316,0.175-0.5l0.2-0.558c0.116-0.313,0.299-0.813,0.549-1.497c0.235-0.644,0.411-1.206,0.528-1.686
					c0.095-0.393,0.142-0.734,0.142-1.025c0-0.237-0.043-0.414-0.13-0.531c-0.095-0.12-0.216-0.137-0.365-0.051
					c-0.214,0.123-0.365,0.4-0.454,0.831c-0.03,0.142-0.045,0.301-0.045,0.476v0.3l-0.755,0.436V300.635z"/>
				<path style="fill:#37474F;" d="M95.061,301.526v2.483l-0.768,0.442v-7.834l0.768-0.443v2.793l0.938-3.334l0.817-0.473
					l-1.05,3.802l1.23,3.929l-0.901,0.52l-0.805-2.716L95.061,301.526z"/>
			</g>
			<g id="XMLID_2024_">
				<path id="XMLID_863_" style="fill:#E0E0E0;" d="M102.007,309.384c-0.115,0-0.208-0.093-0.208-0.208l-0.001-40.73
					c0-0.115,0.093-0.208,0.208-0.208c0.115,0,0.208,0.094,0.208,0.208l0.001,40.73
					C102.215,309.291,102.122,309.384,102.007,309.384z"/>
			</g>
			<path id="XMLID_2023_" style="fill:#27DEBF;" d="M113.046,264.991c1.945-1.123,3.522-0.213,3.522,2.034
				c0,2.246-1.577,4.978-3.522,6.101c-1.945,1.123-3.522,0.213-3.522-2.034S111.1,266.114,113.046,264.991z"/>
			<path id="XMLID_2022_" style="fill:#455A64;" d="M120.044,264.979c0,0.959,0.861,1.239,1.923,0.626l88.873-51.375
				c1.062-0.613,1.923-1.887,1.923-2.846c0-0.959-0.861-1.239-1.923-0.626l-88.874,51.374
				C120.905,262.746,120.044,264.02,120.044,264.979z"/>
			<path id="XMLID_2021_" style="fill:#E0E0E0;" d="M109.523,283.186c0,0.959,0.861,1.239,1.923,0.626L306.199,171.44
				c1.062-0.613,1.923-1.887,1.923-2.846s-0.861-1.239-1.923-0.626L111.446,280.34C110.384,280.953,109.523,282.227,109.523,283.186
				z"/>
			<path id="XMLID_2020_" style="fill:#E0E0E0;" d="M109.523,290.159c0,0.959,0.861,1.239,1.923,0.626l194.753-112.372
				c1.062-0.613,1.923-1.887,1.923-2.846c0-0.958-0.861-1.239-1.923-0.626L111.446,287.313
				C110.384,287.926,109.523,289.2,109.523,290.159z"/>
			<path id="XMLID_2011_" style="fill:#E0E0E0;" d="M117.918,294.084c0,0.959,0.861,1.239,1.923,0.626l7.821-4.504
				c1.062-0.613,1.923-1.887,1.923-2.846c0-0.958-0.861-1.239-1.923-0.625l-7.821,4.503
				C118.779,291.851,117.918,293.125,117.918,294.084z"/>
			<path id="XMLID_2010_" style="fill:#E0E0E0;" d="M142.154,279.948c0,0.959,0.861,1.239,1.923,0.626l7.821-4.504
				c1.062-0.613,1.923-1.887,1.923-2.846c0-0.959-0.861-1.239-1.923-0.626l-7.821,4.503
				C143.015,277.715,142.154,278.99,142.154,279.948z"/>
			<g id="XMLID_2005_">
				<path id="XMLID_2009_" style="fill:#EBEBEB;" d="M109.523,300.405v-3.68c0-0.409,0.287-0.905,0.642-1.108l4.765-2.734
					c0.355-0.203,0.642-0.037,0.642,0.372v3.68c0,0.409-0.287,0.905-0.642,1.108l-4.765,2.734
					C109.811,300.98,109.523,300.813,109.523,300.405z"/>
				<polygon id="XMLID_2006_" style="fill:#EBEBEB;" points="111.768,299.708 113.328,298.806 112.553,301.06 				"/>
			</g>
			<path id="XMLID_2002_" style="fill:#EBEBEB;" d="M135.872,281.551l0.628,0.564c-2.112,3.184-1.365,4.661,0.479,5.383
				c-0.609-0.679-0.425-2.689,0.724-4.302l0.628,0.564c0.123,0.111,0.433-0.074,0.505-0.3l1.06-3.363
				c0.049-0.154-0.049-0.242-0.21-0.189l-3.518,1.155C135.93,281.14,135.749,281.441,135.872,281.551z"/>
		</g>
	</g>
</g>
<g id="Icons">
	<g id="Heart">
		<path id="XMLID_1922_" style="fill:#27DEBF;" d="M241.219,381.41c0.029-6.696-2.068-13.247-8.825-17.149
			c-3.412-1.97-7.983-2.905-12.768-2.875v-0.012h-0.103c-5.564,0.053-11.426,1.438-16.007,4.082
			c-3.996,2.301-5.706,5.511-5.698,8.685h-0.008v6.867c-7.779-1.859-18.47-1.603-24.975,2.162c-4.581,2.645-6.979,6.029-7.071,9.242
			l0,0.059l0.02,0v9.148c-0.003,0.058-0.019,0.117-0.021,0.174l0,0.059h0.02c-0.051,2.763,1.568,5.402,4.98,7.372
			c10.576,6.106,32.393,5.627,48.82,4.153l17.278-1.574l2.726-9.975c0.926-3.442,1.622-7.294,1.631-11.097h0.004v-9.322H241.219z"/>
		<path id="XMLID_2345_" style="opacity:0.15;" d="M236.859,402.439l0.003,9.365l-17.273,1.585c-16.43,1.48-38.25,1.96-48.82-4.15
			c-3.42-1.97-5.04-4.61-4.98-7.37h-0.03v-0.06c0.01-0.06,0.02-0.12,0.03-0.17v-9c0,2.7,1.62,5.29,4.98,7.22
			c10.57,6.11,32.39,5.63,48.82,4.15L236.859,402.439z"/>
		<path id="XMLID_2348_" style="opacity:0.3;" d="M202.209,382.413c-1.3-0.55-2.79-1.03-4.4-1.41v-6.86
			C197.819,377.213,199.459,380.253,202.209,382.413z"/>
		<path id="XMLID_2342_" style="fill:#27DEBF;" d="M232.394,364.262c-3.412-1.97-7.983-2.905-12.768-2.875v-0.012h-0.103
			c-5.564,0.053-11.426,1.438-16.007,4.082c-7.87,4.532-6.907,12.59-1.312,16.957c-7.563-3.23-21.52-3.787-29.37,0.757
			c-4.581,2.645-6.979,6.029-7.071,9.242l0,0.059l0.02,0c-0.051,2.763,1.568,5.402,4.98,7.372
			c10.576,6.106,32.393,5.626,48.82,4.153l17.278-1.574l2.726-9.975C242.14,382.964,242.97,370.367,232.394,364.262z"/>
		<path id="XMLID_2394_" style="opacity:0.3;" d="M241.219,381.413v9.32c-0.01,3.8-0.7,7.65-1.63,11.1l-2.727,9.971l-0.003-9.381
			l2.73-9.98C240.509,389.023,241.199,385.193,241.219,381.413z"/>
	</g>
	<g id="Like">
		<g id="XMLID_429_">
			<path id="XMLID_1053_" style="fill:#27DEBF;" d="M338.495,337.046c0-1.039-0.626-2.003-1.785-2.66
				c-2.038-1.177-4.236-1.669-4.236-1.669c2.198-1.269,1.515-4.202-0.181-5.181c-2.529-1.46-4.749-1.559-4.749-1.559
				c1.878-1.663,1.099-3.764-0.939-4.941c-3.639-2.101-7.523-0.733-7.523-0.733c0.352-0.782,0.598-2.587-2.059-4.109
				c-1.12-0.647-3.18-1.257-5.367-1.214c-1.408,0.025-2.913,0.326-4.194,1.078l-15.664,9.044c-2.049-2.021-4.428-3.641-7.555-4.965
				c-2.006-0.862-4.289-1.602-7.01-2.249c-1.291-0.314-2.572-0.425-3.745-0.4c-4.541,0.108-7.964,2.258-7.972,3.212h-0.003v9.346
				h0.002c-0.004,0.135,0.058,0.246,0.195,0.325c1.366,0.789,9.518,4.694,10.5,6.062c1.046,1.343,4.289,11.101,4.418,11.533
				c0.011,0.006,0.011,0.006,0.011,0.006l0.011-0.006l29.333,16.936c0,0,22.515-13.049,25.898-15.002
				c1.807-1.043,2.619-2.323,2.617-3.505h0.008v-9.349H338.495z"/>
			<path id="XMLID_1054_" style="opacity:0.2;" d="M280.621,338.611v9.35c-0.12-0.43-3.37-10.19-4.41-11.53v-9.35
				C277.251,328.421,280.501,338.181,280.621,338.611z"/>
			<polygon id="XMLID_1023_" style="opacity:0.3;" points="309.98,355.522 309.98,364.902 280.626,347.965 280.626,338.612 			"/>
			<path id="XMLID_2435_" style="fill:#27DEBF;" d="M327.544,325.977c0,0,2.22,0.098,4.748,1.559
				c1.697,0.979,2.379,3.912,0.181,5.181c0,0,2.198,0.493,4.236,1.669c2.476,1.405,2.561,4.202-0.832,6.161
				c-3.382,1.953-25.897,14.976-25.897,14.976l-29.333-16.91l-0.011,0.006c0,0,0,0-0.011-0.006
				c-0.128-0.431-3.372-10.19-4.418-11.533c-0.982-1.368-9.134-5.273-10.5-6.062c-1.11-0.641,2.614-3.407,7.779-3.53
				c1.174-0.025,2.454,0.086,3.745,0.4c2.721,0.647,5.004,1.386,7.01,2.249c3.126,1.324,5.506,2.945,7.555,4.965l15.664-9.044
				c1.281-0.752,2.785-1.053,4.194-1.078c2.187-0.043,4.247,0.567,5.367,1.214c2.657,1.522,2.411,3.327,2.059,4.109
				c0,0,3.884-1.368,7.523,0.733C328.643,322.212,329.422,324.313,327.544,325.977z"/>
			<path id="XMLID_2433_" style="opacity:0.15;" d="M338.501,337.051v9.34h-0.01c0.01,1.19-0.81,2.47-2.61,3.51
				c-3.39,1.95-25.901,15.001-25.901,15.001l0-9.38c0,0,22.511-13.021,25.901-14.971
				C337.681,339.511,338.501,338.231,338.501,337.051z"/>
			<path id="XMLID_2430_" style="opacity:0.15;" d="M276.211,327.081v9.35c-0.98-1.37-9.14-5.27-10.5-6.06
				c-0.14-0.08-0.2-0.19-0.2-0.33v-9.33c0,0.13,0.07,0.23,0.2,0.31C267.071,321.801,275.231,325.711,276.211,327.081z"/>
		</g>
		<g id="XMLID_431_">
			<path id="XMLID_1021_" style="fill:#27DEBF;" d="M308.158,360.804c0.002-0.366-0.254-0.751-0.776-1.052l-30.669-17.707
				c-0.95-0.548-2.387-0.608-3.209-0.133l-8.343,4.817c-0.375,0.216-0.548,0.507-0.546,0.81h-0.01v9.346h0.01
				c-0.001,0.365,0.255,0.749,0.776,1.05l30.669,17.707c0.95,0.548,2.387,0.608,3.209,0.133l8.343-4.817
				c0.374-0.216,0.547-0.505,0.546-0.808h0.01v-9.346H308.158z"/>
			<path id="XMLID_1058_" style="opacity:0.15;" d="M297.787,366.736v9.36c-0.61-0.02-1.23-0.17-1.73-0.45l-30.67-17.71
				c-0.52-0.3-0.77-0.69-0.77-1.05h-0.01v-9.35c0,0.37,0.26,0.75,0.78,1.05l30.67,17.7
				C296.557,366.576,297.187,366.726,297.787,366.736z"/>
			<path id="XMLID_1028_" style="fill:#27DEBF;" d="M265.16,346.729l8.343-4.817c0.823-0.475,2.26-0.415,3.21,0.133l30.669,17.707
				c0.95,0.548,1.053,1.378,0.23,1.853l-8.343,4.817c-0.823,0.475-2.259,0.415-3.209-0.133l-30.669-17.707
				C264.441,348.034,264.338,347.204,265.16,346.729z"/>
			<path id="XMLID_1059_" style="opacity:0.3;" d="M308.167,360.806v9.34h-0.01c0,0.31-0.17,0.6-0.54,0.81l-8.35,4.82
				c-0.39,0.22-0.93,0.33-1.48,0.31v-9.35c0.56,0.02,1.09-0.09,1.48-0.31l8.35-4.82
				C307.987,361.386,308.167,361.106,308.167,360.806z"/>
		</g>
	</g>
</g>
<g id="Character">
	<g id="Character_1_">
		<g id="XMLID_2161_">
			<g id="Character_boy_7_">
				<path id="XMLID_2402_" style="fill:#B16668;" d="M411.005,160.356c0,0-5.421-0.194-9.939,7.024
					c-3.071,4.906-13.798,23.326-13.798,23.326s-20.874-4.742-22.049-5.721c-1.175-0.98-1.104-3.545-1.279-4.872
					c-0.292-2.221,0.674-4.411,0.812-5.27c0.241-1.497-2.145-1.019-3.327,1.249c-0.864,1.657-0.93,3.338-1.672,3.531
					c-0.253,0.066-2.591-1.241-2.931-1.484c-1.293-0.924-3.63-2.436-5.401-1.739c-0.585,0.23-1.041,0.761-1.179,1.374
					c-0.218,0.967-0.133,1.711-0.664,2.598c-0.225,0.377-0.571,0.712-0.699,1.144c-0.167,0.566,0.075,1.016,0.021,1.58
					c-0.074,0.774-0.919,1.288-1.042,2.055c-0.089,0.555,0.224,1.101,0.221,1.663c-0.002,0.362-0.137,0.715-0.134,1.077
					c0.005,0.711,0.525,1.311,1.075,1.762c1.933,1.589,3.907,2.294,6.196,3.056c1.903,0.634,4.414,1.009,6.565,1.523
					c2.151,0.514,26.755,11.151,30.029,8.459c3.274-2.692,19.694-27.217,19.694-27.217
					C415.265,165.46,411.005,160.356,411.005,160.356z"/>
				<g id="XMLID_2392_">
					<path id="XMLID_2393_" style="fill:#27DEBF;" d="M420.529,158.286c0,0-5.975-0.713-9.852,0.401
						c-3.877,1.114-6.748,2.738-9.592,7.357c-3.797,6.167-10.079,16.752-10.079,16.752s3.621,6.382,12.208,8.478l11.576-17.813
						L420.529,158.286z"/>
				</g>
				<g id="Character_boy_8_">
					<g id="XMLID_2162_">
						<rect id="XMLID_2389_" x="432.745" y="336.839" style="fill:#B16668;" width="8.775" height="15.022"/>
						<polygon id="XMLID_2385_" style="fill:#B16668;" points="417.238,340.622 408.468,340.924 408.029,325.026 417.238,324.725 
													"/>
						<path id="XMLID_2384_" style="fill:#37474F;" d="M445.257,224.671c0,8.379-1.481,57.119-1.481,57.119
							c0.204,2.411,2.526,6.698,2.706,15.383c0.262,12.595-4.587,47.177-4.587,47.177s-4.26,2.489-9.77,0.193
							c0,0-3.98-46.878-5.552-59.345c-1.372-10.88-3.7-40.437-3.7-40.437l-4.132,35.519c0,0,1.618,6.489,1.087,13.945
							c-0.41,5.767-2.035,41.472-2.035,41.472s-4.13,2.802-10.132,0.775c0,0-6.189-50.902-6.29-56.193
							c-0.116-6.032,2.293-67.605,2.293-67.605L445.257,224.671z"/>
						<path id="XMLID_2383_" style="fill:#F0F0F0;" d="M439.492,163.029c1.93,0.863,3.454,2.434,4.228,4.401
							c0.69,1.752,1.285,4.234,1.285,7.584v17.193l0.251,32.465c-12.595,6.639-28.606,7.083-42.043-2.73
							c0,0,0.75-41.787,0.75-48.623c0-0.309,0.008-0.622,0.023-0.939c0.488-9.763,10.101-16.463,19.568-14.028l7.952,2.046
							L439.492,163.029L439.492,163.029z"/>
						<path id="XMLID_2382_" style="fill:#263238;" d="M432.745,347.53v-1.255c-0.84,0.366-2.79,7.809-6.272,10.984
							c-2.768,2.525-6.544,5.441-7.504,8.255c-0.999,2.927,5.258,4.543,7.844,4.085c3.005-0.532,8.212-2.648,9.52-4.609
							c1.307-1.961,1.919-4.854,2.982-6.292c1.062-1.437,3.511-3.042,4.085-4.705c0.316-0.914-0.059-2.915-0.502-4.607
							c-0.407-1.552-0.848-3.257-1.377-3.112c-0.001,0.189,0,0.957,0,0.957c-0.637,0.706-2.399,1.407-4.387,1.483
							C435.849,348.763,432.734,348.509,432.745,347.53z"/>
						<path id="XMLID_2381_" style="fill:#263238;" d="M408.375,338.218c-0.456,0.016-0.827,0.658-1.831,1.746
							c-1.215,1.315-3.201,2.733-5.162,3.714c-3.286,1.645-9.674,4.175-12.565,5.477c-1.806,0.814-1.722,2.995,0.146,4.237
							c1.867,1.241,6.374,2.136,11.787,0.926c2.949-0.659,6.787-3.383,9.216-3.236c2.429,0.147,6.975,0.112,8.768-1.124
							c1.793-1.236,1.076-3.876,0.569-6.144c-0.553-2.476-1.245-6.336-2.064-6.167v0.853c-1.055,1.598-6.499,2.248-8.816,1.072
							L408.375,338.218z"/>
						<path id="XMLID_2380_" style="fill:#263238;" d="M422.872,244.761c0,0-7.014-1.976-12.219-7.006c0,0,2.358,4.415,9.369,8.523
							l-0.935,31.017L422.872,244.761z"/>
						<g id="XMLID_2163_">
							<g id="XMLID_2311_">
								<path id="XMLID_2398_" style="fill:#263238;" d="M430.871,129.652c0,7.333-5.945,13.278-13.278,13.278
									c-7.333,0-13.278-5.945-13.278-13.278c0-7.333,6.331-8.805,13.664-8.805C425.313,120.848,430.871,122.319,430.871,129.652z"
									/>
								<path id="XMLID_2377_" style="fill:#263238;" d="M437.803,139.65c0,0-1.956,9.191-2.741,10.701
									c-0.785,1.51-2.406,1.939-2.406,1.939l0.137-6.466L437.803,139.65z"/>
								<path id="XMLID_2376_" style="fill:#263238;" d="M435.348,126.483c0,0,2.107-0.361,3.749,1.318
									c1.61,1.647,0.711,6.801-1.294,11.849l-3.685,0.423L435.348,126.483z"/>
								<path id="XMLID_2375_" style="fill:#B16668;" d="M433.013,140.076c0.739,0.441,1.793-0.978,2.704-1.932
									c0.911-0.953,3.886-2.256,5.37,0.87c1.512,3.187-1.31,7.397-3.652,8.132c-4.036,1.267-4.642-1.322-4.642-1.322
									l-0.137,14.951c-6.77,7.789-18.637,3.212-13.302-0.777l0.011-4.431c0,0-3.657,0.555-5.441,0.279
									c-2.968-0.459-4.836-2.801-5.736-6.014c-1.446-5.161-1.995-9.327-0.768-19.476c1.345-11.124,14.283-11.24,21.27-6.842
									S433.013,140.076,433.013,140.076z"/>
								<g id="XMLID_2315_">
									<g id="XMLID_2361_">
										<path id="XMLID_2372_" style="fill:#263238;" d="M422.733,142.622h-0.636c-2.27,0-4.117-1.847-4.117-4.118
											s1.847-4.118,4.117-4.118h0.636c2.271,0,4.118,1.847,4.118,4.118S425.004,142.622,422.733,142.622z M422.097,135.081
											c-1.887,0-3.423,1.536-3.423,3.423c0,1.888,1.536,3.423,3.423,3.423h0.636c1.888,0,3.424-1.535,3.424-3.423
											c0-1.888-1.536-3.423-3.424-3.423H422.097z"/>
									</g>
									<g id="XMLID_2357_">
										<path id="XMLID_2358_" style="fill:#263238;" d="M410.177,142.622h-0.636c-2.27,0-4.117-1.847-4.117-4.118
											s1.847-4.118,4.117-4.118h0.636c2.271,0,4.118,1.847,4.118,4.118S412.448,142.622,410.177,142.622z M409.541,135.081
											c-1.887,0-3.423,1.536-3.423,3.423c0,1.888,1.536,3.423,3.423,3.423h0.636c1.888,0,3.424-1.535,3.424-3.423
											c0-1.888-1.536-3.423-3.424-3.423H409.541z"/>
									</g>
									<g id="XMLID_2355_">
										<path id="XMLID_2356_" style="fill:#263238;" d="M418.03,137.692c-0.381-0.625-1.235-1.06-2.175-1.108
											c-0.81-0.041-1.525,0.226-1.898,0.716l-0.553-0.42c0.519-0.683,1.424-1.044,2.487-0.99c1.181,0.06,2.228,0.612,2.733,1.44
											L418.03,137.692z"/>
									</g>
									<g id="XMLID_2316_">
										<rect id="XMLID_2350_" x="426.469" y="137.659" style="fill:#263238;" width="8.76" height="0.694"/>
									</g>
								</g>
								<path id="XMLID_2314_" style="fill:#263238;" d="M433.012,141.319c0.372,0.007,1.785-2.338,2.704-3.175
									c1.275-1.16-0.369-11.661-0.369-11.661c1.475-3.143-1.243-6.754-4.086-7.819c-2.127-0.796-4.469-0.743-6.734-0.58
									c-2.038,0.147-4.07,0.374-6.091,0.68c-2.454,0.372-4.899,0.863-7.379,0.951c-1.976,0.07-4-0.131-5.843-0.818
									c-0.595-0.222-1.198,0.313-1.003,0.917c0.159,0.493,0.382,1.03,0.692,1.509c0.623,0.963,1.094,1.772,1.964,2.539
									c0.884,0.781,1.845,1.475,2.862,2.074c5.461,3.213,12.365,2.831,18.444,2c1.371-0.188,1.664,1.141,2.403,4.771
									C431.225,135.894,431.763,141.295,433.012,141.319z"/>
								<path id="XMLID_2313_" style="fill:#263238;" d="M435.34,127.3l4.468-2.398c-0.634-1.28-2.148-1.781-3.382-1.119
									C435.192,124.445,434.706,126.02,435.34,127.3z"/>
								<path id="XMLID_2312_" style="fill:#9A4A4D;" d="M419.365,155.568c0,0,6.626-1.335,8.942-2.566
									c1.55-0.824,2.827-2.252,3.202-3.168c0,0-0.434,1.966-1.819,3.737c-1.694,2.166-10.325,3.76-10.325,3.76L419.365,155.568z"
									/>
							</g>
							<g id="XMLID_2304_">
								<path id="XMLID_2310_" style="fill:#263238;" d="M420.957,138.42c0,0.762,0.595,1.378,1.328,1.376
									c0.733-0.002,1.328-0.621,1.328-1.383c0-0.762-0.594-1.378-1.328-1.376C421.552,137.038,420.957,137.658,420.957,138.42z"/>
								<path id="XMLID_2309_" style="fill:#263238;" d="M423.09,132.923l2.84,1.568c0.419-0.816,0.122-1.829-0.662-2.261
									C424.484,131.796,423.508,132.106,423.09,132.923z"/>
								<path id="XMLID_2308_" style="fill:#9A4A4D;" d="M419.965,147.592l-3.031,1.137c0.3,0.869,1.222,1.318,2.059,1.005
									C419.83,149.419,420.265,148.46,419.965,147.592z"/>
								<path id="XMLID_2307_" style="fill:#263238;" d="M408.777,134.091l2.59-1.995c-0.528-0.742-1.536-0.896-2.252-0.345
									C408.4,132.301,408.249,133.349,408.777,134.091z"/>
								<path id="XMLID_2306_" style="fill:#263238;" d="M409.914,138.042c0,0.762,0.595,1.378,1.328,1.376
									c0.733-0.002,1.328-0.621,1.328-1.383c0-0.762-0.595-1.378-1.328-1.376C410.509,136.66,409.914,137.28,409.914,138.042z"/>
								<polygon id="XMLID_2305_" style="fill:#9A4A4D;" points="416.476,136.976 416.322,145.027 411.563,143.979 								"/>
							</g>
						</g>
					</g>
				</g>
			</g>
		</g>
		<g id="XMLID_2159_">
			<path id="XMLID_2160_" style="fill:#B16668;" d="M458.226,207.862c-2.788-32.491-8.455-43.052-17.775-44.377
				c-3.22,2.824-3.996,12.745-0.63,19.363c0,0,7.238,20.411,7.649,27.824c0.361,6.513-0.542,15.83-1.481,21.235
				c-0.166,0.957-0.704,1.808-1.465,2.413c-2.041,1.622-1.91,3.262-3.367,5.18c-1.142,1.502-2.207,1.964-1.987,2.376
				c0.281,0.529,1.307,1.322,2.839,0.659c0.771-0.334,1.308-0.783,2.502-1.75c0,0-0.673,2.496-2.63,5.538
				c-2.653,4.123-2.526,6.457,3.697,5.809c3.9-0.405,6.737-3.16,8.699-12.076c0.565-2.569,1.896-7.264,2.448-10.551
				C458.313,220.063,458.675,213.091,458.226,207.862z"/>
		</g>
		<path id="XMLID_1604_" style="fill:#27DEBF;" d="M437.803,162.472c0,0,6.791,0.482,10.219,4.501
			c3.428,4.019,6.7,11.01,8.995,24.232c0,0-4.296,6.083-15.504,4.456c0,0-4.876-16.42-5.311-23.255
			C435.726,164.95,437.803,162.472,437.803,162.472z"/>
	</g>
</g>
</svg>
