<svg xmlns="http://www.w3.org/2000/svg" version="1.1" xmlns:xlink="http://www.w3.org/1999/xlink" width="512" height="512" x="0" y="0" viewBox="0 0 90 90" style="enable-background:new 0 0 512 512" xml:space="preserve"><g><path d="M72.2 62.13c-3.36-2.26-7.49-3.17-11.5-2.58V37.96C67.54 37.6 73 31.93 73 25c0-7.17-5.83-13-13-13-6.83 0-12.44 5.3-12.95 12H35.11l-6.54-11.26a1.47 1.47 0 0 0-1.29-.75H14.43c-.83 0-1.5.67-1.5 1.5s.67 1.5 1.5 1.5h11.98L31.64 24h-8.92c-.55 0-1 .45-1 1v41.4c0 10.75 8.75 19.49 19.49 19.49 3.53 0 6.84-.96 9.7-2.6 2.14.96 4.43 1.46 6.72 1.46 2.72 0 5.44-.68 7.87-2.02 2.3-1.27 4.28-3.1 5.73-5.3.23-.35.22-.8-.02-1.13-1.16-1.63-2.61-3-4.24-4.09.76-.62 1.49-1.29 2.14-2.05a16.24 16.24 0 0 0 3.5-6.98c.09-.4-.07-.82-.41-1.05zM60 14c6.07 0 11 4.93 11 11 0 5.83-4.56 10.6-10.3 10.96v-3.63c.73-.07 1.44-.25 2.13-.53.51-.21.75-.8.53-1.31a.993.993 0 0 0-1.3-.54c-.44.18-.89.28-1.36.34V25c0-.55-.45-1-1-1h-4.96c.06-.36.17-.71.31-1.06a.993.993 0 0 0-.54-1.3.991.991 0 0 0-1.31.53c-.24.59-.4 1.2-.49 1.83h-3.66c.51-5.6 5.22-10 10.95-10zM41.21 83.89c-9.64 0-17.49-7.84-17.49-17.49V26h9.08l10.17 17.52c-.46-.14-.93-.29-1.42-.46-9.28-3.31-15.08-.07-15.33.07-.31.18-.5.51-.5.87v22.4c0 8.55 6.95 15.49 15.49 15.49S56.7 74.95 56.7 66.4V44c0-.36-.19-.68-.5-.86a.999.999 0 0 0-.99-.01c-.04.02-3.18 1.73-8.45 1.15C46.73 44.09 36.27 26 36.27 26H58.7v40.4c0 9.65-7.84 17.49-17.49 17.49zM54.7 45.51V66.4c0 7.44-6.05 13.49-13.49 13.49S27.72 73.84 27.72 66.4V44.63c1.51-.63 6.28-2.14 13.16.31 6.65 2.37 11.51 1.38 13.82.57zM69.16 76.9a14.148 14.148 0 0 1-4.62 4.08 14.336 14.336 0 0 1-11.61.96c3.37-2.54 5.88-6.15 7.04-10.33 3.64.53 6.94 2.42 9.19 5.29zm-1.57-8.04c-.71.84-1.52 1.59-2.4 2.23-.02.02-.03.05-.05.06a16.51 16.51 0 0 0-4.73-1.49c.18-1.06.29-2.14.29-3.26v-4.83c3.38-.57 6.88.09 9.79 1.85-.56 2.01-1.53 3.84-2.9 5.44z" fill="#000000" opacity="1" data-original="#000000"></path><path fill="#8BC53F" d="M69.16 76.9a14.148 14.148 0 0 1-4.62 4.08 14.336 14.336 0 0 1-11.61.96c3.37-2.54 5.88-6.15 7.04-10.33 3.64.53 6.94 2.42 9.19 5.29zM70.49 63.42c-.56 2.01-1.53 3.84-2.9 5.44-.71.84-1.52 1.59-2.4 2.23-.02.02-.03.05-.05.06a16.51 16.51 0 0 0-4.73-1.49c.18-1.06.29-2.14.29-3.26v-4.83c3.38-.57 6.88.09 9.79 1.85z" opacity="1" data-original="#8bc53f"></path><path fill="#FFC400" d="M71 25c0 5.83-4.56 10.6-10.3 10.96v-3.63c.73-.07 1.44-.25 2.13-.53.51-.21.75-.8.53-1.31a.993.993 0 0 0-1.3-.54c-.44.18-.89.28-1.36.34V25c0-.55-.45-1-1-1h-4.96c.06-.36.17-.71.31-1.06a.993.993 0 0 0-.54-1.3.991.991 0 0 0-1.31.53c-.24.59-.4 1.2-.49 1.83h-3.66c.51-5.6 5.22-10 10.95-10 6.07 0 11 4.93 11 11z" opacity="1" data-original="#ffc400"></path><path fill="#FFD54F" d="M54.7 45.51V66.4c0 7.44-6.05 13.49-13.49 13.49S27.72 73.84 27.72 66.4V44.63c1.51-.63 6.28-2.14 13.16.31 6.65 2.37 11.51 1.38 13.82.57z" opacity="1" data-original="#ffd54f"></path><path fill="#B3E5FC" d="M58.7 26v40.4c0 9.65-7.84 17.49-17.49 17.49-9.64 0-17.49-7.84-17.49-17.49V26h9.08l10.17 17.52c-.46-.14-.93-.29-1.42-.46-9.28-3.31-15.08-.07-15.33.07-.31.18-.5.51-.5.87v22.4c0 8.55 6.95 15.49 15.49 15.49S56.7 74.95 56.7 66.4V44c0-.36-.19-.68-.5-.86a.999.999 0 0 0-.99-.01c-.04.02-3.18 1.73-8.45 1.15C46.73 44.09 36.27 26 36.27 26z" opacity="1" data-original="#b3e5fc"></path><path d="M46 50c-2.21 0-4 1.79-4 4s1.79 4 4 4 4-1.79 4-4-1.79-4-4-4zm0 6c-1.1 0-2-.9-2-2s.9-2 2-2 2 .9 2 2-.9 2-2 2z" fill="#000000" opacity="1" data-original="#000000"></path><circle cx="46" cy="54" r="2" fill="#F6921E" opacity="1" data-original="#f6921e"></circle><path d="M38 67c-2.21 0-4 1.79-4 4s1.79 4 4 4 4-1.79 4-4-1.79-4-4-4zm0 6c-1.1 0-2-.9-2-2s.9-2 2-2 2 .9 2 2-.9 2-2 2z" fill="#000000" opacity="1" data-original="#000000"></path><circle cx="38" cy="71" r="2" fill="#F6921E" opacity="1" data-original="#f6921e"></circle><path d="M34 56c-1.65 0-3 1.35-3 3s1.35 3 3 3 3-1.35 3-3-1.35-3-3-3zm0 4c-.55 0-1-.45-1-1s.45-1 1-1 1 .45 1 1-.45 1-1 1z" fill="#000000" opacity="1" data-original="#000000"></path><circle cx="34" cy="59" r="1" fill="#F6921E" opacity="1" data-original="#f6921e"></circle><path d="M57.564 20.124a.996.996 0 0 0 .383-.077 5.389 5.389 0 0 1 4.092-.005 1 1 0 1 0 .764-1.848 7.397 7.397 0 0 0-5.624.007 1 1 0 0 0 .385 1.923zM65.362 25c0 .7-.133 1.38-.396 2.022a1 1 0 0 0 1.851.757A7.308 7.308 0 0 0 67.361 25c0-.985-.192-1.942-.572-2.844a1 1 0 0 0-1.844.774c.277.656.417 1.353.417 2.07z" fill="#000000" opacity="1" data-original="#000000"></path></g></svg>