<svg xmlns="http://www.w3.org/2000/svg" version="1.1" xmlns:xlink="http://www.w3.org/1999/xlink" width="512" height="512" x="0" y="0" viewBox="0 0 479.821 479.821" style="enable-background:new 0 0 512 512" xml:space="preserve" class=""><g><path d="M143.814 28.74c116.751-53.182 254.51-1.649 307.692 115.102s1.649 254.51-115.102 307.692-254.51 1.649-307.692-115.102c-44.265-97.175-16.58-212.011 67.102-278.34" style="" fill="#E6E6E6" data-original="#e6e6e6"></path><path d="M311.814 373.9c73.956-39.805 101.64-132.025 61.836-205.981a151.922 151.922 0 0 0-5.836-9.923l-16.248-25.744-46.504 164-8.248 84.504 15-6.856z" style="" fill="#CCCCCC" data-original="#cccccc"></path><path d="M307.814 376.004c11.408-19.664 18.168-44.736 14.88-63.064a92.801 92.801 0 0 1 20.424-76.352l2.696-3.2a92.699 92.699 0 0 0 20.736-44.848c6.864-41.56-24.576-91.64-62.736-108.536-25.48-11.28-71.48-13.232-96 0-50.456 27.2-84.8 79.256-96 136-3.936 19.92 1.952 68.632 8 88l8.744 30.592a124.397 124.397 0 0 0 49.488 69.744 84.904 84.904 0 0 0 14.968 8.144c26.6 10.768 71.936 4.872 94.8-12.48a81.665 81.665 0 0 0 20-24" style="" fill="#603813" data-original="#603813"></path><circle cx="107.814" cy="124.004" r="36" style="" fill="#F7931E" data-original="#f7931e"></circle><circle cx="75.814" cy="188.004" r="36" style="" fill="#FBB03B" data-original="#fbb03b"></circle><path d="M167.814 110.676c-46.195-7.808-80.007-47.821-80-94.672 46.851-.007 86.864 33.805 94.672 80" style="" fill="#39B54A" data-original="#39b54a"></path><circle cx="87.814" cy="256.004" r="16" style="" fill="#009245" data-original="#009245"></circle><circle cx="95.814" cy="288.004" r="16" style="" fill="#009245" data-original="#009245"></circle><circle cx="103.814" cy="328.004" r="16" style="" fill="#009245" data-original="#009245"></circle><circle cx="63.814" cy="280.004" r="16" style="" fill="#009245" data-original="#009245"></circle><path d="M239.814.004a237.973 237.973 0 0 0-99.32 21.456c-.232.104-.376.304-.6.432a103.994 103.994 0 0 0-52.08-13.888 8 8 0 0 0-8 8 104.263 104.263 0 0 0 7.504 38.784C-14.921 139.062-29.484 290.261 54.791 392.5s235.474 116.802 337.713 32.527 116.802-235.474 32.527-337.713A239.906 239.906 0 0 0 239.814.004zm-65.992 93.648a187.587 187.587 0 0 0-9.128 8.2c-37.26-8.15-64.961-39.478-68.488-77.456 38.264 3.557 69.739 31.643 77.616 69.256zm156.8 217.872a84.457 84.457 0 0 1 18.656-69.76l2.696-3.2a100.848 100.848 0 0 0 22.528-48.728c0-.232.04-.48.072-.72 22.717 60.18 2.766 128.127-48.88 166.472a93.711 93.711 0 0 0 4.896-44.064h.032zM358.71 187.26a84.728 84.728 0 0 1-18.944 40.976l-2.696 3.2a100.417 100.417 0 0 0-22.2 82.936 94.815 94.815 0 0 1-13.92 57.6 73.507 73.507 0 0 1-17.936 21.632c-20.592 15.64-62.856 21.2-86.968 11.44a77.28 77.28 0 0 1-13.528-7.376 116.419 116.419 0 0 1-46.24-65.288l-8.8-30.784c-5.6-18.008-11.48-65.408-7.792-84.064a189.523 189.523 0 0 1 91.928-130.488 91.594 91.594 0 0 1 41.488-8.208 125.454 125.454 0 0 1 47.472 8.48c36.376 16.104 64.04 63.736 58.104 99.944h.032zM95.814 280.004a8 8 0 1 1 0 16 8 8 0 0 1 0-16zm-16-24a8 8 0 1 1 16 0 8 8 0 0 1-16 0zm24 64a8 8 0 1 1 0 16 8 8 0 0 1 0-16zm-28-104c-15.464 0-28-12.536-28-28s12.536-28 28-28c3.282.027 6.533.639 9.6 1.808a43.977 43.977 0 0 0 6.096 3.024c12.795 8.684 16.128 26.097 7.444 38.892a28.002 28.002 0 0 1-23.14 12.276zm32-64a27.591 27.591 0 0 1-9.6-1.808 43.977 43.977 0 0 0-6.096-3.024c-12.564-9.016-15.441-26.509-6.425-39.073 8.651-12.055 25.204-15.269 37.737-7.327l.136.104c12.773 8.717 16.062 26.137 7.345 38.911a27.999 27.999 0 0 1-23.097 12.217zm11.584 14.4a238.014 238.014 0 0 0-2.56 5.832 42.997 42.997 0 0 0-2.168-4.8 42.148 42.148 0 0 0 4.728-1.032zm31.376-51.824c.448.152.904.28 1.36.424-.36.408-.696.8-1.048 1.248a19.83 19.83 0 0 0-.312-1.672zm89.04 349.424c-123.676.036-223.966-100.193-224.003-223.87A223.936 223.936 0 0 1 94.582 69.555a102.998 102.998 0 0 0 7.544 10.856c-24.058 3.098-41.049 25.111-37.952 49.169a43.915 43.915 0 0 0 4.784 15.015c-24.021 3.674-40.516 26.126-36.842 50.147s26.126 40.516 50.147 36.842a44 44 0 0 0 20.679-9.012c-.344 4.408-.44 9.368-.336 14.672a23.757 23.757 0 0 0-14.792-5.24c-13.255 0-24 10.745-24 24-13.255 0-24 10.745-24 24s10.745 24 24 24a23.746 23.746 0 0 0 11.768-3.2 23.998 23.998 0 0 0 12 9.656c-9.763 8.899-10.464 24.028-1.565 33.792s24.028 10.464 33.792 1.565a23.93 23.93 0 0 0 2.973-3.261 131.489 131.489 0 0 0 50.824 68.44 91.18 91.18 0 0 0 16.416 8.904 95.803 95.803 0 0 0 35.36 6.056 117.283 117.283 0 0 0 67.232-19.552 87.984 87.984 0 0 0 21.064-24.704 7.881 7.881 0 0 0 1.896-.736c77.841-41.89 106.985-138.95 65.096-216.791a160.085 160.085 0 0 0-6.16-10.473 7.715 7.715 0 0 0-2.848-2.56 124.039 124.039 0 0 0-64.64-78.4c-26.64-11.816-75.504-14.576-103.04.272a174.642 174.642 0 0 0-16.352 10.096 103.372 103.372 0 0 0-32.456-50.496c114.54-46.748 245.288 8.209 292.036 122.748s-8.209 245.288-122.748 292.036a224.014 224.014 0 0 1-84.648 16.608zm-168-184a8 8 0 1 1-16 0 8 8 0 0 1 16 0z" fill="#000000" opacity="1" data-original="#000000"></path><path d="m295.814 156.692-36.688-36.688 10.344-10.344a8 8 0 0 0-.196-11.312 8 8 0 0 0-11.116 0l-10.344 10.344-10.344-10.344a8 8 0 0 0-11.312 11.312l10.344 10.344-36.688 36.688-18.344-18.344a8 8 0 0 0-11.312 11.312l18.344 18.344-36.688 36.688-10.344-10.344a8 8 0 0 0-11.312 11.312l10.344 10.344-2.344 2.344a8 8 0 1 0 11.312 11.312l2.344-2.344 36.688 36.688-36.688 36.688-2.344-2.344a8 8 0 0 0-11.312 11.312l2.344 2.344-2.344 2.344a8 8 0 0 0-.196 11.312 8 8 0 0 0 11.508 0l2.344-2.344 36.688 36.688-2.344 2.344a8 8 0 0 0-.196 11.312 8 8 0 0 0 11.508 0l2.344-2.344 26.344 26.344a8 8 0 0 0 11.312-11.312l-26.344-26.344 36.688-36.688 34.344 34.344a8 8 0 0 0 11.312-.196 8 8 0 0 0 0-11.116l-34.344-34.344 36.688-36.688 2.344 2.344a8 8 0 0 0 11.312-.196 8 8 0 0 0 0-11.116l-2.344-2.344 2.344-2.344a8 8 0 0 0-.196-11.312 8 8 0 0 0-11.116 0l-2.344 2.344-36.688-36.688 36.688-36.688 34.344 34.344a8 8 0 0 0 11.312-11.312l-34.344-34.344 26.344-26.344a8 8 0 0 0-11.312-11.312l-26.344 26.344zm-132.688 59.312 36.688-36.688 36.688 36.688-36.688 36.688-36.688-36.688zm36.688 132.688-36.688-36.688 36.688-36.688 36.688 36.688-36.688 36.688zm84.688-84.688-36.688 36.688-36.688-36.688 36.688-36.688 36.688 36.688zm-36.688-59.312-36.688-36.688 36.688-36.688 36.688 36.688-36.688 36.688z" fill="#000000" opacity="1" data-original="#000000"></path></g></svg>