<svg xmlns="http://www.w3.org/2000/svg" version="1.1" xmlns:xlink="http://www.w3.org/1999/xlink" width="512" height="512" x="0" y="0" viewBox="0 0 64 64" style="enable-background:new 0 0 512 512" xml:space="preserve"><g><g data-name="22-hot chocolate"><path fill="#BA2140" d="M54 55H39v-6h14V31H39v-6h15a5.006 5.006 0 0 1 5 5v20a5.006 5.006 0 0 1-5 5z" opacity="1" data-original="#ba2140"></path><path fill="#F8EAD3" d="M33.443 35.2a3 3 0 0 1-1.793-3.846l8.892-24.432a9 9 0 0 1 16.915 6.157 3 3 0 0 1-5.639-2.052 3 3 0 0 0-5.638-2.052l-8.892 24.432a3 3 0 0 1-3.845 1.793z" opacity="1" data-original="#f8ead3"></path><g fill="#EB3138"><path d="m41.392 22.13-3.586-7.69 2.052-5.638 3.586 7.69zM37.288 33.407l-3.586-7.691 2.052-5.638 3.586 7.69zM45.74 1.625A9.036 9.036 0 0 0 42.386 3.9l3.169 6.8.625-1.718a3 3 0 0 1 2.108-1.887zM56.88 5.68l-5.464 2.547a3 3 0 0 1 .4 2.8 2.96 2.96 0 0 0-.131 1.488l6.3-2.939A9.032 9.032 0 0 0 56.88 5.68z" fill="#EB3138" opacity="1" data-original="#eb3138"></path></g><path fill="#E6294F" d="M31 63c7.732 0 14-7 14-18V21H5v24c0 11 6.268 18 14 18z" opacity="1" data-original="#e6294f"></path><rect width="10" height="8" x="16" y="13" fill="#E8DAC6" rx="2" opacity="1" data-original="#e8dac6"></rect><rect width="10" height="8" x="9" y="17" fill="#F8EAD3" rx="2" opacity="1" data-original="#f8ead3"></rect><rect width="10" height="8" x="23" y="17" fill="#F8EAD3" rx="2" opacity="1" data-original="#f8ead3"></rect><path fill="#634653" d="M45 21H5v4h4a2 2 0 0 1 2 2v5a3 3 0 0 0 3 3 3 3 0 0 0 3-3v-2a3 3 0 0 1 3-3 3 3 0 0 1 3 3v6a3 3 0 0 0 3 3 3 3 0 0 0 3-3v-9a2 2 0 0 1 2-2h14z" opacity="1" data-original="#634653"></path><path d="M54 24h-8v-3a1 1 0 0 0-1-1h-1.767L47.12 9.32a2 2 0 0 1 3.759 1.368 4 4 0 1 0 7.521 2.736 10 10 0 0 0-18.8-6.84L34.719 20H34v-1a3 3 0 0 0-3-3h-4v-1a3 3 0 0 0-3-3h-6a3 3 0 0 0-3 3v1h-4a3 3 0 0 0-3 3v1H5a1 1 0 0 0-1 1v24c0 11.01 6.309 19 15 19h12c5.376 0 9.835-3.062 12.459-8H54a6.006 6.006 0 0 0 6-6V30a6.006 6.006 0 0 0-6-6zm-8 8h6v16h-6.18a27.332 27.332 0 0 0 .18-3zM42.18 5.82l2.3 4.922-1.144 3.141-2.396-5.128.541-1.487a7.994 7.994 0 0 1 .699-1.448zm.184 10.721-1.085 2.981-2.391-5.128 1.085-2.981zM52.761 8.7 56.402 7a7.964 7.964 0 0 1 .523 1.962l-4.033 1.881a3.927 3.927 0 0 0-.131-2.143zm1.193 5.232a1.987 1.987 0 0 1-1.042-.889l4-1.866a8.049 8.049 0 0 1-.395 1.559 2 2 0 0 1-2.563 1.2zM51.735 2.486a7.948 7.948 0 0 1 3.694 2.767l-3.778 1.761a3.938 3.938 0 0 0-2.762-1l-1.764-3.786a7.941 7.941 0 0 1 4.61.258zm-6.48.464 1.7 3.64a3.933 3.933 0 0 0-1.48 1.561L43.59 4.113a8 8 0 0 1 1.665-1.163zm-7.335 14.1L39.3 20h-2.453zM32 19v1h-8v-1a1 1 0 0 1 1-1h6a1 1 0 0 1 1 1zm-15-4a1 1 0 0 1 1-1h6a1 1 0 0 1 1 1v1a3 3 0 0 0-3 3v1h-2v-1a3 3 0 0 0-3-3zm-7 4a1 1 0 0 1 1-1h6a1 1 0 0 1 1 1v1h-8zm21 43H19c-7.532 0-13-7.149-13-17V26h3a1 1 0 0 1 1 1v5a4 4 0 0 0 8 0v-2a2 2 0 0 1 4 0v6a4 4 0 0 0 8 0v-9a1 1 0 0 1 1-1h10a1 1 0 0 0 0-2H31a3 3 0 0 0-3 3v9a2 2 0 0 1-4 0v-6a4 4 0 0 0-8 0v2a2 2 0 0 1-4 0v-5a3 3 0 0 0-3-3H6v-2h38v23c0 9.851-5.468 17-13 17zm27-12a4 4 0 0 1-4 4h-9.625a22.4 22.4 0 0 0 1.144-4H53a1 1 0 0 0 1-1V31a1 1 0 0 0-1-1h-7v-4h8a4 4 0 0 1 4 4z" fill="#000000" opacity="1" data-original="#000000"></path><path d="M9.17 48a1 1 0 0 0 .91-1.082A22.758 22.758 0 0 1 10 45a1 1 0 0 0-2 0c0 .706.029 1.408.088 2.086a1 1 0 0 0 1 .914.857.857 0 0 0 .082 0zM10.534 49.767a1 1 0 1 0-1.945.466 13.9 13.9 0 0 0 4.311 7.533 1 1 0 1 0 1.288-1.532 11.916 11.916 0 0 1-3.654-6.467zM11.679 1.948A3.439 3.439 0 0 1 14 5c0 3.679 3.533 4.9 3.684 4.948a.994.994 0 0 0 1.26-.628 1 1 0 0 0-.623-1.267A3.44 3.44 0 0 1 16 5C16 1.322 12.467.1 12.316.053a1 1 0 0 0-.637 1.9zM25.679 4.947A3.439 3.439 0 0 1 28 8c0 3.679 3.533 4.9 3.684 4.948a.994.994 0 0 0 1.26-.628 1 1 0 0 0-.623-1.267A3.439 3.439 0 0 1 30 8c0-3.679-3.533-4.9-3.684-4.948a1 1 0 0 0-.637 1.9z" fill="#000000" opacity="1" data-original="#000000"></path></g></g></svg>