<svg xmlns="http://www.w3.org/2000/svg" version="1.1" xmlns:xlink="http://www.w3.org/1999/xlink" width="512" height="512" x="0" y="0" viewBox="0 0 512 512" style="enable-background:new 0 0 512 512" xml:space="preserve"><g><path fill="#FED2A4" d="M339.858 130.007c6.852-11.488 19.397-19.187 33.745-19.187 21.688 0 39.269 17.582 39.269 39.269 0 1.563-.102 3.102-.279 4.618 4.729-1.327 9.522-2.018 14.254-2.018 4.383 0 8.519.604 12.35 1.766a66.39 66.39 0 0 0 .16-4.365c0-36.316-29.44-65.755-65.755-65.755-21.643 0-40.839 10.459-52.822 26.596zM108.431 260.538l1.359-.245-.657-1.215a56.158 56.158 0 0 1-2.915-6.298c-19.049-2.706-33.7-19.073-33.7-38.869 0-21.688 17.582-39.269 39.269-39.269 11.349 0 21.568 4.82 28.737 12.518 1.531-6.733 4.712-12.678 9.439-17.405a34.31 34.31 0 0 1 5.844-4.684c-11.655-10.511-27.088-16.914-44.019-16.914-36.315 0-65.755 29.44-65.755 65.755 0 26.285 15.428 48.959 37.719 59.484 5.692-6.359 14.312-10.991 24.679-12.858z" opacity="1" data-original="#fed2a4"></path><path fill="#FB2B3A" d="M286.422 193.598c2.847-1.356 6.014-2.048 9.443-2.048 5.694 0 12.061 1.928 18.412 5.577l1.307.75.184-1.496c3.211-26.095 17.016-45.036 32.824-45.036 11.455 0 22.011 9.772 28.236 26.14l.618 1.625 1.094-1.352a73.161 73.161 0 0 1 4.954-5.531L279.92 68.654c-2.115-2.115-5.565-1.975-7.542.27-22.005 24.984-27.026 59.677-15.103 89.113 13.017 1.327 24.39 15.446 29.147 35.561z" opacity="1" data-original="#fb2b3a"></path><path fill="#E41F2D" d="M286.422 193.598c2.847-1.356 6.014-2.048 9.443-2.048 1.026 0 2.081.084 3.147.209-25.377-30.69-26.164-74.858-2.391-106.404L279.92 68.654c-2.115-2.115-5.565-1.975-7.542.27-22.005 24.984-27.026 59.677-15.103 89.113 13.017 1.327 24.39 15.446 29.147 35.561z" opacity="1" data-original="#e41f2d"></path><path fill="#FE646F" d="M298.788 169.739a7.474 7.474 0 0 1-5.303-2.197 7.5 7.5 0 0 1 0-10.606l8.302-8.302a7.5 7.5 0 0 1 10.606 0 7.5 7.5 0 0 1 0 10.606l-8.302 8.302a7.476 7.476 0 0 1-5.303 2.197zM296.228 132.867h-11.741a7.5 7.5 0 0 1 0-15h11.741a7.5 7.5 0 0 1 0 15z" opacity="1" data-original="#fe646f"></path><path fill="#FD4755" d="M216.979 107.055C245.624 78.41 246.88 32.748 220.747 2.61a5.16 5.16 0 0 0-7.545-.269L112.265 103.279a5.16 5.16 0 0 0 .269 7.545c30.137 26.132 75.8 24.876 104.445-3.769z" opacity="1" data-original="#fd4755"></path><path fill="#FB2B3A" d="M131.621 87.368a5.089 5.089 0 0 1-1.408-2.037l-17.949 17.949a5.16 5.16 0 0 0 .269 7.545c30.138 26.133 75.8 24.877 104.445-3.768a76.651 76.651 0 0 0 13.64-18.505c-28.733 23.741-70.705 23.348-98.997-1.184z" opacity="1" data-original="#fb2b3a"></path><path fill="#E41F2D" d="M195.315 94.373a7.474 7.474 0 0 1-5.303-2.197l-7.405-7.405a7.5 7.5 0 0 1 0-10.606 7.5 7.5 0 0 1 10.606 0l7.405 7.405a7.5 7.5 0 0 1-5.303 12.803zM162.427 107.128a7.5 7.5 0 0 1-7.5-7.5V89.156a7.5 7.5 0 0 1 15 0v10.472a7.5 7.5 0 0 1-7.5 7.5zM209.551 62.098h-10.472a7.5 7.5 0 0 1 0-15h10.472a7.5 7.5 0 0 1 0 15z" opacity="1" data-original="#e41f2d"></path><path fill="#80D261" d="M166.49 318.684c0-4.851.553-9.573 1.57-14.122-18.026-5.716-30.004-17.003-30.004-29.579 0-11.452 9.768-22.006 26.128-28.232l1.622-.617-1.347-1.094a72.766 72.766 0 0 1-5.584-5.019c-10.421-10.421-17.11-23.322-18.912-36.402-9.555-2.078-18.986-.599-26.326 4.98-13.81 10.497-15.629 32.009-5.382 50.955-17.322 3.121-30.687 14.159-32.693 28.878-1.65 12.103 4.773 23.859 15.92 31.906h75.05c-.014-.552-.042-1.1-.042-1.654z" opacity="1" data-original="#80d261"></path><g fill="#017B4E"><path d="M271.212 320.337c.086-.106.183-.209.268-.315.015-.445.034-.89.034-1.339 0-22.205-18.064-40.269-40.269-40.269s-40.27 18.064-40.27 40.269c0 .555.03 1.104.052 1.654z" fill="#017B4E" opacity="1" data-original="#017b4e"></path><path d="M231.245 253.929c22.562 0 42.455 11.606 54.052 29.153a85.48 85.48 0 0 1 1.163-19.404 97.855 97.855 0 0 1-2.209-3.624c-7.595-13.155-11.662-27.279-11.452-39.772.207-12.306 4.545-21.522 12.214-25.95a19.979 19.979 0 0 1 2.336-1.148c-5.076-21.244-17.526-36.261-32.082-36.261-12.278 0-23.051 10.692-29.171 26.784a73.366 73.366 0 0 0-5.16-5.748c-22.255-22.255-54.348-26.245-71.681-8.912s-13.343 49.426 8.912 71.681a73.382 73.382 0 0 0 5.661 5.088c-16.086 6.121-26.773 16.892-26.773 29.166 0 13.268 12.481 24.78 30.777 30.559 6.091-29.426 32.209-51.612 63.413-51.612z" fill="#017B4E" opacity="1" data-original="#017b4e"></path></g><g fill="#026841"><path d="M209.969 307.766c-5.342-1.061-10.336-2.581-14.858-4.478a39.165 39.165 0 0 0-3.131 16.038l.011.011h20.017a41.389 41.389 0 0 1 1.627-4.692c1.221-2.955-.53-6.256-3.666-6.879zM137.056 274.983c0 13.035 12.042 24.382 29.815 30.256a65.295 65.295 0 0 1 6.977-18.63c-2.166-3.633-3.353-7.545-3.353-11.625 0-10.462 7.762-19.831 20.014-26.16 3.029-1.565 3.566-5.632 1.152-8.04l-.055-.055c-22.255-22.255-26.245-54.348-8.912-71.681 3.418-3.418 7.416-5.994 11.793-7.777-16.82-5.687-34.081-3.375-45.233 7.777-17.333 17.333-13.343 49.426 8.912 71.681a73.59 73.59 0 0 0 5.661 5.088c-16.085 6.12-26.771 16.891-26.771 29.166z" fill="#026841" opacity="1" data-original="#026841"></path></g><path fill="#026841" d="M223.953 254.35a65.036 65.036 0 0 1 7.292-.422c5.29 0 10.429.652 15.354 1.855l-40.894-40.894a7.5 7.5 0 0 0-10.606 0 7.5 7.5 0 0 0 0 10.606z" opacity="1" data-original="#026841"></path><path fill="#68CA44" d="M440.031 239.241a73.798 73.798 0 0 0 5.661-5.088c22.255-22.255 26.245-54.348 8.912-71.681s-49.426-13.343-71.681 8.912a73.568 73.568 0 0 0-5.16 5.748c-6.12-16.092-16.893-26.784-29.171-26.784-16.677 0-30.591 19.709-33.816 45.913-10.844-6.228-21.825-7.665-30.261-2.794-16.511 9.533-17.017 39.569-1.129 67.088a97.165 97.165 0 0 0 2.826 4.563c2.403-15.197 8.935-29.88 19.687-42.199a4.531 4.531 0 0 1 3.413-1.552 4.46 4.46 0 0 1 3.174 1.314l97.657 97.657h16.363c-.185-5.754-2.184-11.95-5.728-18.101 26.26-3.199 46.026-17.129 46.026-33.829-.001-12.276-10.687-23.046-26.773-29.167z" opacity="1" data-original="#68ca44"></path><path fill="#80D261" d="M408.761 208.313a7.5 7.5 0 0 0-10.606 0l-49.311 49.311 10.606 10.606 49.311-49.311a7.5 7.5 0 0 0 0-10.606z" opacity="1" data-original="#80d261"></path><path fill="#FFFFFF" d="M296 318.684c0 .147-.005.294-.01.44l-.036 1.214h115.603l-98.364-98.364c-2.256-2.256-5.949-2.117-8.047.287-14.71 16.855-21.713 38.096-21.013 59.128C291.596 291.941 296 304.804 296 318.684z" opacity="1" data-original="#ffffff"></path><path fill="#FEDF74" d="M352.368 320.337h34.745a45.122 45.122 0 0 0 14.643-9.8l-64.031-64.031c-17.682 17.682-17.682 46.349 0 64.031a45.122 45.122 0 0 0 14.643 9.8z" opacity="1" data-original="#fedf74"></path><path fill="#FED402" d="M352.397 320.337h16.99a45.1 45.1 0 0 1-14.648-9.8c-14.735-14.735-17.179-37.095-7.355-54.373l-9.658-9.658c-17.682 17.682-17.682 46.349 0 64.031a45.065 45.065 0 0 0 14.671 9.8z" opacity="1" data-original="#fed402"></path><path fill="#FED2A4" d="M192.017 320.337a39.43 39.43 0 0 1-.042-1.654c0-21.688 17.582-39.269 39.269-39.269s39.269 17.582 39.269 39.269c0 .555-.019 1.105-.042 1.654h26.486c.014-.551.042-1.099.042-1.654 0-36.316-29.44-65.755-65.755-65.755s-65.755 29.44-65.755 65.755c0 .555.028 1.102.042 1.654z" opacity="1" data-original="#fed2a4"></path><path fill="#D8ECFE" d="M178.896 512h146.338c1.996 0 3.979-.371 5.824-1.133C403.13 481.11 454.741 411.86 458.92 330.082c.299-5.855-4.429-10.745-10.293-10.745H55.503c-5.863 0-10.592 4.889-10.293 10.745C49.389 411.86 101 481.11 173.072 510.867a15.251 15.251 0 0 0 5.824 1.133z" opacity="1" data-original="#d8ecfe"></path><path fill="#C4E2FF" d="M89.796 367.785H50.637c15.569 64.963 61.747 118.024 122.435 143.082a15.251 15.251 0 0 0 5.824 1.133h39.159c-1.996 0-3.979-.371-5.824-1.133-60.688-25.057-106.866-78.119-122.435-143.082z" opacity="1" data-original="#c4e2ff"></path><path fill="#EAF6FF" d="M448.627 319.337H55.503c-5.863 0-10.592 4.889-10.293 10.745a206.933 206.933 0 0 0 5.427 37.703h402.856a207.02 207.02 0 0 0 5.427-37.703c.299-5.855-4.43-10.745-10.293-10.745z" opacity="1" data-original="#eaf6ff"></path><path fill="#D8ECFE" d="M45.21 330.082a206.933 206.933 0 0 0 5.427 37.703h39.159a207.02 207.02 0 0 1-5.427-37.703c-.299-5.855 4.43-10.745 10.293-10.745H55.503c-5.863 0-10.592 4.89-10.293 10.745z" opacity="1" data-original="#d8ecfe"></path><path fill="#FE9901" d="M382.115 47.257c2.494-.668 4.122-3.081 3.782-5.64a48.187 48.187 0 0 0-13.748-27.825A48.175 48.175 0 0 0 344.325.044c-2.559-.339-4.972 1.289-5.64 3.782l-13.588 50.71c-1.026 3.83 2.478 7.334 6.308 6.308z" opacity="1" data-original="#fe9901"></path><path fill="#FB8801" d="m347.622 54.537 13.179-49.184A48.284 48.284 0 0 0 344.325.044c-2.559-.339-4.972 1.289-5.64 3.782l-13.588 50.71c-1.026 3.83 2.478 7.334 6.308 6.308l16.082-4.309a5.143 5.143 0 0 1 .135-1.998z" opacity="1" data-original="#fb8801"></path></g></svg>