<svg xmlns="http://www.w3.org/2000/svg" version="1.1" xmlns:xlink="http://www.w3.org/1999/xlink" width="512" height="512" x="0" y="0" viewBox="0 0 512 512" style="enable-background:new 0 0 512 512" xml:space="preserve" class=""><g><path fill="#F18BC3" d="M512 256c0 141.387-114.613 256-256 256S0 397.387 0 256 114.613 0 256 0s256 114.613 256 256zm0 0" opacity="1" data-original="#f18bc3"></path><path fill="#9BB9C3" d="M458.316 277.844C458.316 401.64 357.957 502 234.156 502 110.36 502 10 401.64 10 277.844c0-123.801 100.36-224.16 224.156-224.16s224.16 100.359 224.16 224.16zm0 0" opacity="1" data-original="#9bb9c3"></path><path fill="#B4D2D7" d="M234.156 43.684C108.434 43.684 5.867 142.77.254 267.109c5.66 132.543 112.094 238.977 244.637 244.637 124.336-5.613 223.422-108.18 223.422-233.902.003-129.324-104.833-234.16-234.157-234.16zm0 434.953c-110.894 0-200.793-89.899-200.793-200.793S123.262 77.05 234.156 77.05 434.95 166.949 434.95 277.844s-89.898 200.793-200.793 200.793zm0 0" opacity="1" data-original="#b4d2d7"></path><path fill="#9BB9C3" d="M254.523 511.098c-3.195.273-6.402.504-9.632.648C112.348 506.086 5.914 399.652.254 267.11 5.867 142.77 108.434 43.684 234.156 43.684c3.301 0 6.578.086 9.848.222a240.16 240.16 0 0 0-3.781.188C46.12 55.277-44.031 289.105 88.91 430.977c42.176 45.011 100.438 74.77 165.613 80.12zm0 0" opacity="1" data-original="#9bb9c3"></path><path fill="#509C49" d="M371.027 260.676c-1.246.441-2.5.84-3.754 1.219a32.39 32.39 0 0 1 1.352 4.835c4.332 22.47-18.14 40.192-50.707 40.696-26.89 22.726-62.816 30.812-84.145 18.687-22.617 12.856-61.648 2.996-88.914-22.949-28.234-26.871-33.148-60.816-10.976-75.82a36.792 36.792 0 0 1 4.93-2.778c-.7-1.3-1.38-2.617-2.024-3.96-16.152-33.801-7.66-67.192 18.969-74.57 8.5-2.356 17.816-1.77 27.094 1.206C185.918 114.996 207.539 90 233.773 90c14.032 0 26.743 7.156 36 18.746 11.786-9.332 25.844-11.68 38.243-4.664 6.808 3.855 12.289 10.07 16.238 17.758 22.16-18.309 51.41-20.426 67.871-3.965s14.344 45.71-3.965 67.871c7.688 3.95 13.902 9.43 17.758 16.238 12.074 21.34-3.547 47.621-34.89 58.692zm0 0" opacity="1" data-original="#509c49"></path><path fill="#46853E" d="M322.684 303.164c-14.313 13.621-31.868 22.8-48.59 26.598 7.426-4.262 14.57-9.504 21.047-15.668 28.234-26.871 33.148-60.817 10.976-75.82a36.792 36.792 0 0 0-4.93-2.778c.7-1.3 1.38-2.617 2.024-3.96 16.152-33.802 7.66-67.188-18.969-74.571-5.574-1.547-11.504-1.824-17.539-.992-5.121.707-9.98-2.59-11.101-7.637-6.082-27.356-25.88-47.406-49.375-47.406-.313 0-.618.02-.93.027C213.445 94.039 223.234 90 233.773 90c24.727 0 45.356 22.207 50.211 51.766.461 2.789 3.172 4.672 5.93 4.058 7.524-1.672 14.969-1.703 21.871.211 26.63 7.383 35.121 40.77 18.969 74.57a96.573 96.573 0 0 1-2.02 3.961 36.87 36.87 0 0 1 4.93 2.782c22.172 15 17.254 48.945-10.98 75.816zm0 0" opacity="1" data-original="#46853e"></path><path fill="#B8EB6A" d="M283.742 234.227a109.67 109.67 0 0 1-5.637 32.011c3.348 15.008 2.34 29.325-3.722 39.989 12.855 22.617 2.996 61.648-22.95 88.914-26.87 28.234-60.82 33.148-75.82 10.976a36.367 36.367 0 0 1-2.777-4.93c-1.3.7-2.617 1.38-3.961 2.024-33.805 16.152-67.191 7.66-74.57-18.969-2.36-8.5-1.77-17.816 1.207-27.094-32.246-3.066-57.242-24.687-57.242-50.921 0-12.465 5.648-23.88 15.03-32.766-4.62-10.598-4.554-21.965 1.302-32.309 4.34-7.675 11.347-13.847 20.011-18.3-20.633-24.973-23.02-57.938-4.472-76.485 18.55-18.55 51.511-16.164 76.488 4.469 4.453-8.664 10.625-15.668 18.3-20.012 24.048-13.61 53.66 3.992 66.141 39.317a95.143 95.143 0 0 1 1.371 4.23 36.757 36.757 0 0 1 5.454-1.52c26.285-5.07 46.812 22.41 45.847 61.376zm0 0" opacity="1" data-original="#b8eb6a"></path><path fill="#A1E52E" d="M283.742 234.227c-.078 3.171-.308 6.32-.656 9.43-3.73-31.118-22.27-51.45-45.191-47.028-.461.09-.918.187-1.375.297-2.31.547-4.633-.696-5.422-2.934a.522.522 0 0 0-.028-.07c-12.476-35.324-42.09-52.93-66.14-39.32-7.676 4.343-13.848 11.347-18.301 20.011-24.973-20.633-57.938-23.02-76.484-4.468-5.739 5.734-9.465 12.851-11.278 20.683-3.484-16.789.07-33.254 11.278-44.46 18.546-18.552 51.511-16.165 76.484 4.472 4.453-8.664 10.625-15.672 18.3-20.016 24.051-13.61 53.665 3.996 66.141 39.32a98.786 98.786 0 0 1 1.375 4.231 36.258 36.258 0 0 1 5.45-1.523c26.285-5.07 46.812 22.41 45.847 61.375zM175.613 206.34a36.367 36.367 0 0 0-2.777 4.93c-1.3-.7-2.617-1.38-3.961-2.024-33.8-16.152-67.188-7.66-74.57 18.969-2.356 8.5-1.77 17.816 1.21 27.09-32.25 3.07-57.245 24.691-57.245 50.925 0 16.516 9.914 31.2 25.3 40.579-3.636-6.395-5.664-13.48-5.664-20.942 0-26.234 24.996-47.855 57.246-50.922-2.976-9.277-3.566-18.593-1.21-27.093 7.382-26.63 40.769-35.122 74.57-18.965 1.343.64 2.66 1.32 3.96 2.02a36.39 36.39 0 0 1 2.782-4.93c12.812-18.938 39.445-18.098 63.687.14a108.354 108.354 0 0 0-7.507-8.8c-26.871-28.235-60.817-33.153-75.82-10.977zm0 0" opacity="1" data-original="#a1e52e"></path><path fill="#31662B" d="M120 270c0 5.523-4.477 10-10 10s-10-4.477-10-10 4.477-10 10-10 10 4.477 10 10zm30-110c-5.523 0-10 4.477-10 10s4.477 10 10 10 10-4.477 10-10-4.477-10-10-10zm110 50c-5.523 0-10 4.477-10 10s4.477 10 10 10 10-4.477 10-10-4.477-10-10-10zm-60 10c-5.523 0-10 4.477-10 10s4.477 10 10 10 10-4.477 10-10-4.477-10-10-10zm170-20c-5.523 0-10 4.477-10 10s4.477 10 10 10 10-4.477 10-10-4.477-10-10-10zm0 0" opacity="1" data-original="#31662b"></path><path fill="#FDBF43" d="M284.277 426.86c-5.484 2.495-8.722 7.363-8.722 12.495V455c0 8.523-8.692 15.39-19.22 14.984-9.862-.382-17.448-7.332-17.448-15.41v-.094c0-8.136-8.184-14.535-18.125-14.48h-.207c-18.016 0-32.39-12.758-30.364-27.836 1.528-11.344 67.993-33.25 82.493-32.027 14.136 1.191 25.578 10.476 27.125 22.035 1.418 10.57-5.223 19.996-15.532 24.687zm0 0" opacity="1" data-original="#fdbf43"></path><path fill="#FCB30B" d="M275.555 453.984V455c0 8.523-8.692 15.39-19.22 14.984-9.858-.382-17.444-7.332-17.444-15.41v-.094c0-8.136-8.184-14.535-18.13-14.48h-.206c-18.016 0-32.39-12.762-30.364-27.836.489-3.621 7.59-8.316 17.504-12.992.114 13.73 13.743 24.832 30.551 24.832h.207c9.945-.055 18.125 6.348 18.125 14.484v.094c0 8.078 7.586 15.027 17.45 15.406.511.02 1.023.008 1.527-.004zm0 0" opacity="1" data-original="#fcb30b"></path><path fill="#8F4A4B" d="M407.844 384.52c-6.504 11.156-15.692 20.574-27.074 26.667-19.106 10.231-41.637 16.141-65.77 16.141-3.648 0-7.262-.137-10.828-.402-17.457-1.297-33.567-9.473-45.567-22.215-8.8-9.344-19.37-17.39-31.277-23.758-22.594-12.09-37.172-35.387-37.328-61.008v-.574c0-45.805 33.031-84.945 79.648-100.625 20.79-6.992 43.5-5.332 63.247 4.219 13.726 6.64 30.71 12.015 44.87 15.851 35.497 9.614 61.16 41.125 62.196 77.883.023.89.039 1.781.039 2.672 0 .125 0 .25-.004.375-.066 16.957-6.512 33.375-18.047 45.809-5.426 5.851-10.164 12.207-14.105 18.965zm0 0" opacity="1" data-original="#8f4a4b"></path><path fill="#B7696A" d="M439.965 316.7c.023.89.035 1.78.035 2.671v.375c-.066 16.957-6.516 33.375-18.047 45.809-5.43 5.851-10.168 12.207-14.11 18.965-6.503 11.156-15.69 20.574-27.073 26.668-14.356 7.687-30.649 12.933-48.098 15.066-15.29-2.457-29.27-10.172-39.977-21.543-8.8-9.344-19.37-17.39-31.273-23.758-22.594-12.09-37.176-35.387-37.328-61.008 0-.191-.004-.382-.004-.574 0-45.805 33.035-84.945 79.652-100.625a81.048 81.048 0 0 1 9.328-2.512 85.376 85.376 0 0 1 19.825 6.73c13.726 6.641 30.714 12.016 44.87 15.852 35.497 9.614 61.165 41.125 62.2 77.883zm0 0" opacity="1" data-original="#b7696a"></path><path fill="#783D3E" d="m412.441 337.152-4.671-3.57 8.52-8.516c3.901-3.906 3.901-10.238 0-14.144l-1.93-1.926c-3.907-3.906-10.239-3.906-14.141 0l-10.664 10.664-26.868-20.539 19.106-19.105c3.906-3.907 3.906-10.239 0-14.145l-1.926-1.926c-3.906-3.906-10.238-3.906-14.144 0l-21.25 21.25-26.868-20.535 7.778-7.777c3.902-3.903 3.902-10.235 0-14.14l-1.93-1.93c-3.906-3.907-10.238-3.907-14.144 0l-9.918 9.921-11.504-8.793c-4.387-3.351-10.664-2.515-14.016 1.871l-1.656 2.168c-3.356 4.387-2.516 10.665 1.87 14.02l9.09 6.95-20.984 20.98-8.398-6.418c-4.387-3.356-10.664-2.516-14.016 1.87l-1.656 2.169c-3.355 4.386-2.516 10.664 1.871 14.02l5.985 4.574-8.157 8.156c-3.906 3.906-3.906 10.238 0 14.144l1.926 1.926c3.906 3.906 10.238 3.906 14.145 0l10.3-10.305 26.868 20.54-19.149 19.152c-3.906 3.902-3.906 10.234 0 14.14l1.93 1.926c3.902 3.906 10.234 3.906 14.14 0l21.297-21.297 26.868 20.54-13.098 13.097c-3.906 3.906-3.906 10.238 0 14.14l1.93 1.93c3.902 3.907 10.234 3.907 14.14 0l15.242-15.242 11.489 8.778c4.386 3.355 10.664 2.515 14.015-1.872l1.657-2.168c3.355-4.386 2.515-10.664-1.872-14.015l-9.074-6.938 20.985-20.984 7.078 5.414c4.39 3.352 10.664 2.516 14.02-1.871l1.656-2.168c3.351-4.387 2.515-10.66-1.872-14.016zm-132.035-35.297 20.985-20.984 26.867 20.54-20.985 20.98zm71.95 55-26.868-20.539 20.985-20.98 26.867 20.535zm0 0" opacity="1" data-original="#783d3e"></path><path fill="#E84444" d="M250 375c0 46.945-38.055 85-85 85s-85-38.055-85-85 38.055-85 85-85 85 38.055 85 85zm0 0" opacity="1" data-original="#e84444"></path><path fill="#C92C2C" d="M165 290c5.121 0 10.129.48 15 1.348-22.156 3.945-41.336 16.476-53.992 34.023 6.722.95 12.32 5.887 13.976 12.633l3.891 15.871-15.871-3.89A16.799 16.799 0 0 1 117 341.202a84.369 84.369 0 0 0-6.305 22.988c3.551-.367 7.227.38 10.453 2.336l13.98 8.473-13.98 8.473a16.782 16.782 0 0 1-10.453 2.332A84.292 84.292 0 0 0 117 408.793c2.16-4.285 6.102-7.574 11.004-8.777l15.871-3.895-3.89 15.875c-1.657 6.746-7.255 11.684-13.977 12.633 12.652 17.547 31.836 30.078 53.992 34.023A85.113 85.113 0 0 1 165 460c-46.945 0-85-38.055-85-85s38.055-85 85-85zm0 70c-8.285 0-15 6.715-15 15s6.715 15 15 15 15-6.715 15-15-6.715-15-15-15zm0-14.871 8.473-13.98a16.812 16.812 0 0 0-2.493-20.602c-.015-.02-.035-.035-.05-.055-3.25-3.215-8.614-3.215-11.86 0l-.054.055a16.816 16.816 0 0 0-2.489 20.601zm0 59.742-8.473 13.98a16.812 16.812 0 0 0 2.493 20.602c.015.02.035.035.05.055 3.25 3.215 8.614 3.215 11.86 0l.054-.055a16.816 16.816 0 0 0 2.489-20.601zm64.504-35.8-.05-.051a16.812 16.812 0 0 0-20.602-2.493L194.872 375l13.98 8.473a16.812 16.812 0 0 0 20.601-2.493c.02-.015.035-.035.055-.05 3.215-3.246 3.215-8.614-.004-11.86zm-27.508 30.945-15.875-3.895 3.895 15.875a16.813 16.813 0 0 0 16.328 12.809h.078c4.57-.02 8.363-3.813 8.383-8.383v-.074c0-7.746-5.29-14.489-12.809-16.332zm12.809-66.36v-.078c-.02-4.57-3.817-8.363-8.387-8.383h-.074a16.813 16.813 0 0 0-16.328 12.809l-3.895 15.875 15.875-3.895a16.813 16.813 0 0 0 12.809-16.328zm0 0" opacity="1" data-original="#c92c2c"></path><path fill="#FFF5F5" d="M440 55c0 8.285-6.715 15-15 15H310c-5.523 0-10 4.477-10 10s4.477 10 10 10h55c8.285 0 15 6.715 15 15s-6.715 15-15 15h-15c-5.523 0-10 4.477-10 10s4.477 10 10 10h5c8.285 0 15 6.715 15 15s-6.715 15-15 15h-40c-8.285 0-15-6.715-15-15s6.715-15 15-15h5c5.523 0 10-4.477 10-10s-4.477-10-10-10h-75c-8.285 0-15-6.715-15-15s6.715-15 15-15h35c5.523 0 10-4.477 10-10s-4.477-10-10-10h-5c-8.285 0-15-6.715-15-15s6.715-15 15-15h150c8.285 0 15 6.715 15 15zm0 0" opacity="1" data-original="#fff5f5"></path></g></svg>