<svg xmlns="http://www.w3.org/2000/svg" version="1.1" xmlns:xlink="http://www.w3.org/1999/xlink" width="512" height="512" x="0" y="0" viewBox="0 0 58 58" style="enable-background:new 0 0 512 512" xml:space="preserve"><g><g fill="none"><path fill="#E4C05C" d="M30.09 20.61c0-.1-.18.4 24.46-20.12a2.102 2.102 0 0 1 2.68 3.24l-24.5 19.79zM5 41.24 7 44a35.45 35.45 0 0 1-4.06 3.59 1.8 1.8 0 0 1-2.29-2.77z" opacity="1" data-original="#e4c05c"></path><path fill="#464F5D" d="M28 7v12.54L5 38c-2.76-1.45-5-3.85-5-7V7L21.13.92C25.24 2.06 28 4.24 28 7z" opacity="1" data-original="#464f5d"></path><path fill="#393F4A" d="M8 21c-1.41.71-3 4-3 4v13a12.12 12.12 0 0 1-2-1.31V25c0-.15-.24-3.29 2-5 1.45-1.11 2.76-1.49 3-1s.49 1.76 0 2z" opacity="1" data-original="#393f4a"></path><path fill="#464F5D" d="M5 25v25.13c14.41-7.36 9.42-4.84 22-11.13l6-6.19V25z" opacity="1" data-original="#464f5d"></path><path fill="#464F5D" d="M25 40 6.47 53.46C10 57.52 18.94 59.4 26 56.83c4.19-1.51 7-4.37 7-7.83V37.4z" opacity="1" data-original="#464f5d"></path><path fill="#ECF0F1" d="m21.13.92-3.81 3.49A13.18 13.18 0 0 0 14 4c-3.87 0-7 1.57-7 3.5 0 1.32 1.46 2.5 3.61 3.06L7 13.87C2.81 12.43 0 9.79 0 7c0-4.16 6.27-7 14-7a26.16 26.16 0 0 1 7.13.92z" opacity="1" data-original="#ecf0f1"></path><path fill="#7ED09E" d="M28 7c0 5.58-11.17 10.26-21 6.87l3.61-3.31A12.71 12.71 0 0 0 14 11c3.87 0 7-1.57 7-3.5 0-1.33-1.49-2.5-3.68-3.09L21.13.92C25.24 2.06 28 4.24 28 7z" opacity="1" data-original="#7ed09e"></path><path fill="#F29C1F" d="M21 7.5c0 2.82-6 4.29-10.39 3.06C8.46 10 7 8.82 7 7.5 7 5.57 10.13 4 14 4a13.18 13.18 0 0 1 3.32.41C19.51 5 21 6.17 21 7.5z" opacity="1" data-original="#f29c1f"></path><path fill="#393F4A" d="m21.14.91-.01.01M17.32 4.41l-.01.01M28 7v12.54a27.34 27.34 0 0 0-16.11-.62 13.27 13.27 0 0 0-4.73 2.24c-.19-.23-.13.59-.13-7.29C16.92 17.29 28 12.54 28 7z" opacity="1" data-original="#393f4a"></path><path fill="#7ED09E" d="m26 31.87-3.61-3.31C24.54 28 26 26.82 26 25.5c0-1.93-3.13-3.5-7-3.5a13.18 13.18 0 0 0-3.32.41l-3.81-3.49a27.34 27.34 0 0 1 16.13.62c7.86 3.13 5.9 9.61-2 12.33z" opacity="1" data-original="#7ed09e"></path><path fill="#D75E72" d="M26 25.5c0 1.32-1.46 2.47-3.61 3.06A12.71 12.71 0 0 1 19 29c-3.87 0-7-1.57-7-3.5 0-1.33 1.49-2.49 3.68-3.09A13.18 13.18 0 0 1 19 22c3.87 0 7 1.57 7 3.5z" opacity="1" data-original="#d75e72"></path><g fill="#393F4A"><path d="m32.73 23.52-.01.01M33 37.4V49c0 3.46-2.81 6.32-7 7.83v-15.2zM33 25v7.81l-7 4.33v-5.27c4.19-1.44 7-4.08 7-6.87zM11.87 18.92h-.01M15.69 22.42l-.01-.01" fill="#393F4A" opacity="1" data-original="#393f4a"></path></g><path fill="#ECF0F1" d="M26 31.87C16.08 35.29 5 30.54 5 25c0-3.25 3.71-5.22 6.86-6.08l3.81 3.49C13.49 23 12 24.17 12 25.5c0 2.82 6 4.29 10.39 3.06z" opacity="1" data-original="#ecf0f1"></path><path fill="#E4C05C" d="M57.23 22.73 2.94 55.59a1.8 1.8 0 0 1-2.29-2.77c41-25.38 10.43-6.46 53.9-33.33a2.102 2.102 0 0 1 2.68 3.24z" opacity="1" data-original="#e4c05c"></path></g></g></svg>