<svg xmlns="http://www.w3.org/2000/svg" version="1.1" xmlns:xlink="http://www.w3.org/1999/xlink" width="512" height="512" x="0" y="0" viewBox="0 0 480 480" style="enable-background:new 0 0 512 512" xml:space="preserve"><g><path d="M472 119.999c0-35.344-21.488-64-48-64s-48 28.656-48 64c0 27.856 13.368 51.488 32 60.28v227.72c0 8.84 7.16 16 16 16s16-7.16 16-16v-227.72c18.632-8.792 32-32.424 32-60.28zM40 119.999v-48c0-8.84 7.16-16 16-16s16 7.16 16 16v48-48c0-8.84 7.16-16 16-16s16 7.16 16 16v80c0 8.84-7.16 16-16 16H72v240c0 8.84-7.16 16-16 16s-16-7.16-16-16v-240H24c-8.84 0-16-7.16-16-16v-80c0-8.84 7.16-16 16-16s16 7.16 16 16v48z" style="" fill="#FAC05E" data-original="#fac05e"></path><path d="M280 111.999c0 39.768-40 72-40 72s-40-32.232-40-72 40-72 40-72 40 32.232 40 72zM320.936 256.935c-28.12 28.12-79.192 22.624-79.192 22.624s-5.488-51.08 22.624-79.192c28.12-28.12 79.192-22.624 79.192-22.624s5.496 51.08-22.624 79.192z" style="" fill="#59CD90" data-original="#59cd90"></path><path d="M215.632 200.367c28.12 28.12 22.624 79.192 22.624 79.192s-51.08 5.488-79.192-22.624c-28.12-28.12-22.624-79.192-22.624-79.192s51.072-5.488 79.192 22.624zM320.936 383.631c-28.12 28.12-79.192 22.624-79.192 22.624s-5.488-51.08 22.624-79.192c28.12-28.12 79.192-22.624 79.192-22.624s5.496 51.072-22.624 79.192z" style="" fill="#59CD90" data-original="#59cd90"></path><path d="M215.632 327.063c28.12 28.12 22.624 79.192 22.624 79.192s-51.08 5.488-79.192-22.624c-28.12-28.12-22.624-79.192-22.624-79.192s51.072-5.496 79.192 22.624z" style="" fill="#59CD90" data-original="#59cd90"></path><path d="M424 47.999c-30.88 0-56 32.296-56 72 0 27.904 12.672 53.288 32 65.048v222.952c0 13.232 10.768 24 24 24s24-10.768 24-24V185.047c19.328-11.76 32-37.144 32-65.048 0-39.704-25.12-72-56-72zm12.584 125.048a7.992 7.992 0 0 0-4.584 7.232v227.72c0 4.416-3.592 8-8 8s-8-3.584-8-8v-227.72a7.992 7.992 0 0 0-4.584-7.232c-16.4-7.744-27.416-29.064-27.416-53.048 0-30.872 17.944-56 40-56s40 25.128 40 56c0 23.984-11.016 45.304-27.416 53.048zM112 71.999c0-13.232-10.768-24-24-24a23.896 23.896 0 0 0-16 6.128c-4.248-3.808-9.856-6.128-16-6.128s-11.752 2.32-16 6.128a23.896 23.896 0 0 0-16-6.128c-13.232 0-24 10.768-24 24v80c0 13.232 10.768 24 24 24h8v232c0 13.232 10.768 24 24 24s24-10.768 24-24v-232h8c13.232 0 24-10.768 24-24v-80zm-16 80c0 4.416-3.592 8-8 8H72c-4.416 0-8 3.576-8 8v240c0 4.416-3.592 8-8 8s-8-3.584-8-8v-240c0-4.424-3.584-8-8-8H24c-4.408 0-8-3.584-8-8v-80c0-4.416 3.592-8 8-8s8 3.584 8 8v48c0 4.424 3.584 8 8 8s8-3.576 8-8v-48c0-4.416 3.592-8 8-8s8 3.584 8 8v48c0 4.424 3.584 8 8 8s8-3.576 8-8v-48c0-4.416 3.592-8 8-8s8 3.584 8 8v80zM326.6 389.287c30.472-30.488 25.168-83.48 24.92-85.712a7.993 7.993 0 0 0-7.096-7.104c-2.24-.232-55.24-5.536-85.704 24.928-4.248 4.248-7.744 8.968-10.712 13.896v-47.344c1.304.04 2.752.064 4.336.064 17.736 0 52-3.176 74.256-25.432 30.472-30.48 25.168-83.472 24.92-85.704a7.993 7.993 0 0 0-7.096-7.104c-2.24-.232-55.232-5.544-85.704 24.92-4.248 4.256-7.744 8.968-10.712 13.896v-20.952c9.744-8.704 40-38.696 40-75.656 0-43.096-41.224-76.816-42.984-78.224a8.004 8.004 0 0 0-10.04 0C233.224 35.183 192 68.903 192 111.999c0 36.96 30.256 66.952 40 75.656v20.952c-2.968-4.928-6.464-9.648-10.712-13.896-30.472-30.48-83.472-25.16-85.704-24.92a7.993 7.993 0 0 0-7.096 7.104c-.24 2.232-5.552 55.224 24.92 85.704 22.256 22.256 56.52 25.432 74.256 25.432 1.592 0 3.032-.024 4.336-.064v47.344c-2.968-4.928-6.464-9.64-10.712-13.896-30.472-30.48-83.464-25.16-85.704-24.928a7.993 7.993 0 0 0-7.096 7.104c-.24 2.232-5.552 55.224 24.92 85.712 22.248 22.248 56.496 25.424 74.24 25.424 1.6 0 3.048-.024 4.36-.064v33.336h16v-33.36c1.312.04 2.76.064 4.36.064 17.736.008 51.984-3.176 74.232-25.416zm-56.576-183.264c19.336-19.336 51.912-20.928 65.944-20.672.304 14.016-1.28 46.52-20.68 65.928-19.336 19.328-51.968 20.88-65.944 20.68-.312-14.016 1.28-46.528 20.68-65.936zm-105.312 45.256c-19.336-19.336-20.952-51.912-20.664-65.936 13.944-.352 46.52 1.272 65.928 20.68 19.328 19.336 20.952 51.896 20.672 65.936-14.048.24-46.6-1.352-65.936-20.68zm0 126.696c-19.336-19.336-20.952-51.92-20.664-65.944 13.96-.344 46.52 1.28 65.928 20.688 19.336 19.336 20.96 51.912 20.672 65.936-14.032.36-46.528-1.28-65.936-20.68zM208 111.999c0-27.336 21.872-51.504 32-61.232 10.128 9.728 32 33.896 32 61.232 0 23.312-15.888 44.288-26.856 56h-10.296c-10.96-11.712-26.848-32.688-26.848-56zm62.024 220.72c19.328-19.328 51.944-20.92 65.928-20.68.288 14.04-1.344 46.608-20.664 65.936-19.336 19.336-51.928 20.888-65.944 20.672-.312-14.016 1.28-46.52 20.68-65.928zM159.528 30.919l-5.752-14.92a237.471 237.471 0 0 0-14.768 6.264l6.744 14.512a228.025 228.025 0 0 1 13.776-5.856zM132.4 43.543l-7.704-14.032a242.811 242.811 0 0 0-13.8 8.2l8.64 13.472c4.192-2.688 8.48-5.24 12.864-7.64zM216.048 1.183a236.605 236.605 0 0 0-15.912 2.128l2.648 15.784a220.785 220.785 0 0 1 14.848-1.984l-1.584-15.928zM184.408 6.495a240.926 240.926 0 0 0-15.48 4.232l4.736 15.28a223.498 223.498 0 0 1 14.448-3.952l-3.704-15.56zM295.72 6.519l-3.712 15.56a229.826 229.826 0 0 1 14.432 3.96l4.76-15.28a244.775 244.775 0 0 0-15.48-4.24zM369.2 37.775a247.66 247.66 0 0 0-13.776-8.184l-7.728 14.008a228.34 228.34 0 0 1 12.88 7.656l8.624-13.48zM326.344 16.047l-5.768 14.92a229.993 229.993 0 0 1 13.768 5.856l6.768-14.496c-4.8-2.24-9.768-4.352-14.768-6.28zM264.096 1.199l-1.584 15.92c5 .496 9.944 1.168 14.832 1.984L280 3.327a247.914 247.914 0 0 0-15.904-2.128zM248.096.143a233.347 233.347 0 0 0-16.048-.008l.536 15.984c4.968-.168 10-.152 14.976.008l.536-15.984zM320.472 449.079l5.752 14.92a237.471 237.471 0 0 0 14.768-6.264l-6.744-14.512a228.025 228.025 0 0 1-13.776 5.856zM168.808 469.231c5.056 1.568 10.264 3 15.48 4.24l3.712-15.56a229.826 229.826 0 0 1-14.432-3.96l-4.76 15.28zM347.6 436.455l7.704 14.032a242.811 242.811 0 0 0 13.8-8.2l-8.64-13.472a215.932 215.932 0 0 1-12.864 7.64zM138.888 457.671c4.8 2.24 9.768 4.352 14.768 6.28l5.768-14.92a229.993 229.993 0 0 1-13.768-5.856l-6.768 14.496zM110.8 442.223a247.66 247.66 0 0 0 13.776 8.184l7.728-14.016a228.34 228.34 0 0 1-12.88-7.656l-8.624 13.488zM232.432 463.871l-.528 15.984c2.688.096 5.392.144 8.096.144 2.664 0 5.312-.04 7.952-.136l-.536-15.984c-4.976.16-10.008.152-14.984-.008zM262.36 462.887l1.584 15.92a236.605 236.605 0 0 0 15.912-2.128l-2.648-15.784a215.092 215.092 0 0 1-14.848 1.992zM291.888 457.943l3.704 15.56a240.926 240.926 0 0 0 15.48-4.232l-4.736-15.28a223.498 223.498 0 0 1-14.448 3.952zM200 476.671c5.248.88 10.6 1.592 15.896 2.128l1.584-15.92c-5-.496-9.944-1.168-14.832-1.984L200 476.671z" style="" fill="#0F272A" data-original="#0f272a"></path></g></svg>