<svg xmlns="http://www.w3.org/2000/svg" version="1.1" xmlns:xlink="http://www.w3.org/1999/xlink" width="512" height="512" x="0" y="0" viewBox="0 0 60 60" style="enable-background:new 0 0 512 512" xml:space="preserve"><g><path fill="#F44335" d="m23.74 32.56-1.01 1.02-3.1 3.15a.87.87 0 0 1-1.26 0l-4.11-4.17A.918.918 0 0 1 14.9 31H17v-8a1.006 1.006 0 0 1 .16-.54v-.01A1.01 1.01 0 0 1 18 22h2a1 1 0 0 1 1 1v8h2.1a.918.918 0 0 1 .64 1.56zM57.74 32.56l-4.11 4.17a.87.87 0 0 1-1.26 0l-3.1-3.15-1.01-1.02A.918.918 0 0 1 48.9 31H51v-8a1 1 0 0 1 1-1h2a1.01 1.01 0 0 1 .84.45A1.04 1.04 0 0 1 55 23v8h2.1a.918.918 0 0 1 .64 1.56z" opacity="1" data-original="#f44335"></path><path fill="#FFE0B2" d="M58.14 45.13 45.66 57.84A3.9 3.9 0 0 1 43 59H30a85.4 85.4 0 0 1-15-1V47c4-2 7.33-3 11-3a6.981 6.981 0 0 1 4.44 1.59 1.867 1.867 0 0 0 1.21.41h10.19a3.163 3.163 0 0 1 3.09 2.34l9.12-7.64a3.018 3.018 0 0 1 4.09 4.43z" opacity="1" data-original="#ffe0b2"></path><path fill="#DFC49C" d="M58.3 41.08a3.009 3.009 0 0 0-3.817-.673 2.982 2.982 0 0 1 .817.673 3.031 3.031 0 0 1-.16 4.05L42.66 57.84A3.9 3.9 0 0 1 40 59h3a3.9 3.9 0 0 0 2.66-1.16l12.48-12.71a3.031 3.031 0 0 0 .16-4.05z" opacity="1" data-original="#dfc49c"></path><rect width="14" height="13" x="1" y="46" fill="#02A9F4" rx="1" opacity="1" data-original="#02a9f4"></rect><path fill="#0377BC" d="M14 46h-3a1 1 0 0 1 1 1v11a1 1 0 0 1-1 1h3a1 1 0 0 0 1-1V47a1 1 0 0 0-1-1z" opacity="1" data-original="#0377bc"></path><path fill="#FFDF00" d="M55 20a18.006 18.006 0 0 1-.16 2.45A1.01 1.01 0 0 0 54 22h-2a1 1 0 0 0-1 1v8h-2.1a.918.918 0 0 0-.64 1.56l1.01 1.02a18.955 18.955 0 0 1-26.54 0l1.01-1.02A.918.918 0 0 0 23.1 31H21v-8a1 1 0 0 0-1-1h-2a1.01 1.01 0 0 0-.84.45A18.006 18.006 0 0 1 17 20a19 19 0 0 1 38 0z" opacity="1" data-original="#ffdf00"></path><path fill="#FEC108" d="M51 22h-2a1 1 0 0 0-1 1v8h-2.1a.918.918 0 0 0-.64 1.56l1.01 1.02a18.892 18.892 0 0 1-11.77 5.345c.5.039.994.075 1.5.075a18.9 18.9 0 0 0 13.27-5.42l-1.01-1.02A.918.918 0 0 1 48.9 31H51v-8a.99.99 0 0 1 .514-.855A1 1 0 0 0 51 22zM36 1c-.506 0-1 .037-1.5.076A18.994 18.994 0 0 1 52 20a18.534 18.534 0 0 1-.117 2.024A.9.9 0 0 1 52 22h2a1.01 1.01 0 0 1 .84.45A18.006 18.006 0 0 0 55 20 19 19 0 0 0 36 1z" opacity="1" data-original="#fec108"></path><path d="M16 30h-1.1a1.9 1.9 0 0 0-1.745 1.16 1.932 1.932 0 0 0 .393 2.1l4.108 4.169a1.871 1.871 0 0 0 2.686 0l2.435-2.471a19.866 19.866 0 0 0 26.444 0l2.433 2.468A1.866 1.866 0 0 0 53 38a1.862 1.862 0 0 0 1.342-.568l4.116-4.178a1.927 1.927 0 0 0 .386-2.094A1.9 1.9 0 0 0 57.1 30H56v-7a1.983 1.983 0 0 0-.138-.716A19.247 19.247 0 0 0 56 20a20 20 0 0 0-40 0 19.247 19.247 0 0 0 .139 2.284A1.983 1.983 0 0 0 16 23zm3.026 5.972L15.055 32H17a1 1 0 0 0 1-1v-8h2v8a1 1 0 0 0 1 1h1.889zM56.889 32l-3.863 3.973L49.054 32H51a1 1 0 0 0 1-1v-8h2v8a1 1 0 0 0 1 1zM36 2a18.021 18.021 0 0 1 18 18c0 .341-.014.672-.032 1H52a2 2 0 0 0-2 2v7h-1.1a1.9 1.9 0 0 0-1.745 1.16 1.932 1.932 0 0 0 .393 2.1l.271.274a17.878 17.878 0 0 1-23.638 0l.277-.281a1.927 1.927 0 0 0 .387-2.1A1.9 1.9 0 0 0 23.1 30H22v-7a2 2 0 0 0-2-2h-1.968A18.13 18.13 0 0 1 18 20 18.021 18.021 0 0 1 36 2z" fill="#000000" opacity="1" data-original="#000000"></path><path d="m53.409 39.937-8.137 6.811A4.2 4.2 0 0 0 41.836 45c-10.327-.062-10.356.155-10.764-.181A7.979 7.979 0 0 0 26 43a23.753 23.753 0 0 0-10.521 2.664A1.985 1.985 0 0 0 14 45H2a2 2 0 0 0-2 2v11a2 2 0 0 0 2 2h12a2 2 0 0 0 1.652-.875A96.762 96.762 0 0 0 30 60h13.03a4.887 4.887 0 0 0 3.344-1.459l12.481-12.7a4.019 4.019 0 0 0-5.446-5.9zM14 58H2V47h12zm43.428-13.566-12.479 12.7A2.875 2.875 0 0 1 43 58H30a96.5 96.5 0 0 1-14-.847v-9.52A22.229 22.229 0 0 1 26 45a5.894 5.894 0 0 1 3.8 1.361 2.9 2.9 0 0 0 1.847.639h10.189A2.114 2.114 0 0 1 44 48.9a2 2 0 0 1-2 2.1H31a1 1 0 0 0 0 2h11a3.993 3.993 0 0 0 4-4.2c0-.014 0-.026-.006-.04l8.7-7.284a2.01 2.01 0 0 1 2.841.253 2.042 2.042 0 0 1-.107 2.705zM32 25a1 1 0 0 0-2 0 6.006 6.006 0 0 0 5 5.91V32a1 1 0 0 0 2 0v-1.09a5.993 5.993 0 0 0 0-11.82v-7.948A4 4 0 0 1 40 15a1 1 0 0 0 2 0 6.006 6.006 0 0 0-5-5.91V8a1 1 0 0 0-2 0v1.09a5.993 5.993 0 0 0 0 11.82v7.948A4 4 0 0 1 32 25zm8 0a4 4 0 0 1-3 3.858v-7.716A4 4 0 0 1 40 25zm-8-10a4 4 0 0 1 3-3.858v7.716A4 4 0 0 1 32 15z" fill="#000000" opacity="1" data-original="#000000"></path></g></svg>