<svg xmlns="http://www.w3.org/2000/svg" version="1.1" xmlns:xlink="http://www.w3.org/1999/xlink" width="512" height="512" x="0" y="0" viewBox="0 0 512 512" style="enable-background:new 0 0 512 512" xml:space="preserve"><g><path fill="#399349" d="m286.921 36.54 61.56 169.2-282 102.6-61.56-169.2z" opacity="1" data-original="#399349"></path><path fill="#47B85C" d="m285.2 90.4 27.4 75.2c-15.6 5.7-23.6 22.9-17.9 38.5l-187.9 68.4c-5.7-15.6-22.9-23.6-38.5-17.9l-27.4-75.2c15.6-5.7 23.6-22.9 17.9-38.5l187.9-68.4c5.7 15.5 22.9 23.6 38.5 17.9z" opacity="1" data-original="#47b85c"></path><path fill="#2B6E38" d="m325.507 99.037 31.32 177.3-295.5 52.2-31.32-177.3z" opacity="1" data-original="#2b6e38"></path><path fill="#47B85C" d="m314.4 151.7 13.9 78.8c-16.3 2.9-27.2 18.4-24.3 34.8L107 300c-2.9-16.3-18.4-27.2-34.8-24.3l-13.9-78.8c16.3-2.9 27.2-18.4 24.3-34.8l197-34.7c3 16.2 18.5 27.1 34.8 24.3z" opacity="1" data-original="#47b85c"></path><path fill="#399349" d="M55 168.3h300v180H55z" opacity="1" data-original="#399349"></path><path fill="#47B85C" d="M335 218.3v80c-16.6 0-30 13.4-30 30H105c0-16.6-13.4-30-30-30v-80c16.6 0 30-13.4 30-30h200c0 16.6 13.4 30 30 30z" opacity="1" data-original="#47b85c"></path><g fill="#399349"><circle cx="205" cy="258.3" r="40" fill="#399349" opacity="1" data-original="#399349"></circle><circle cx="285" cy="258.3" r="20" fill="#399349" opacity="1" data-original="#399349"></circle><circle cx="125" cy="258.3" r="20" fill="#399349" opacity="1" data-original="#399349"></circle></g><path fill="#DB3529" d="M467.1 217S496.6 409.3 335 459c-158.2 48.6-260-25.2-260-25.2C442 480.2 394.1 217 394.1 217H355l76-90 76 90z" opacity="1" data-original="#db3529"></path><path fill="#272526" d="M355 353.3H55c-2.8 0-5-2.2-5-5v-180c0-2.8 2.2-5 5-5h300c2.8 0 5 2.2 5 5v180c0 2.8-2.2 5-5 5zm-295-10h290v-170H60z" opacity="1" data-original="#272526"></path><path fill="#272526" d="M305 333.3H105c-2.8 0-5-2.2-5-5 0-13.8-11.2-25-25-25-2.8 0-5-2.2-5-5v-80c0-2.8 2.2-5 5-5 13.8 0 25-11.2 25-25 0-2.8 2.2-5 5-5h200c2.8 0 5 2.2 5 5 0 13.8 11.2 25 25 25 2.8 0 5 2.2 5 5v80c0 2.8-2.2 5-5 5-13.8 0-25 11.2-25 25 0 2.8-2.2 5-5 5zm-195.4-10h190.7c2.2-15.3 14.3-27.4 29.6-29.6V223c-15.3-2.2-27.4-14.3-29.6-29.6H109.6c-2.2 15.3-14.3 27.4-29.6 29.6v70.7c15.3 2.2 27.4 14.3 29.6 29.6z" opacity="1" data-original="#272526"></path><path fill="#272526" d="M50.4 295.6 25.1 151.9c-.2-1.3.1-2.6.8-3.7.8-1.1 1.9-1.8 3.2-2.1L324.6 94c1.3-.2 2.7.1 3.7.8s1.8 1.9 2.1 3.2l12.2 69.4-9.8 1.7-11.4-64.4-285.6 50.4 24.5 138.8z" opacity="1" data-original="#272526"></path><path fill="#272526" d="m312.4 169.2-2.1-12.1c-15.5.5-29.5-9.4-34.3-24L88.2 166.2v2.3l-10-.3c.1-1.7-.1-3.5-.4-5.2-.2-1.3.1-2.7.8-3.7.8-1.1 1.9-1.8 3.2-2.1l197-34.7c1.3-.2 2.6.1 3.7.8 1.1.8 1.8 1.9 2.1 3.2 2.4 13.6 15.4 22.7 29 20.3 2.7-.5 5.3 1.3 5.8 4.1l2.9 16.6z" opacity="1" data-original="#272526"></path><path fill="#272526" d="M44.7 262.9.3 140.9c-.9-2.6.4-5.5 3-6.4L285.2 31.9c1.2-.5 2.6-.4 3.8.2s2.1 1.6 2.6 2.8l19.1 52.4-9.4 3.4L283.9 43 11.4 142.2l42.7 117.4z" opacity="1" data-original="#272526"></path><path fill="#272526" d="M55.2 146.6c-.3-1.4-.6-2.7-1.1-4.1-.9-2.6.4-5.5 3-6.4L245 67.7c2.6-.9 5.5.4 6.4 3 4.7 13 19.1 19.7 32 14.9 2.6-.9 5.5.4 6.4 3l5.4 14.7-9.4 3.4-3.8-10.3c-15.1 3.2-30.7-4.1-38-17.7L64.9 144c.1.3.1.6.2.9zM205 303.3c-24.8 0-45-20.2-45-45s20.2-45 45-45 45 20.2 45 45-20.2 45-45 45zm0-80c-19.3 0-35 15.7-35 35s15.7 35 35 35 35-15.7 35-35-15.7-35-35-35zM285 283.3c-13.8 0-25-11.2-25-25s11.2-25 25-25 25 11.2 25 25-11.2 25-25 25zm0-40c-8.3 0-15 6.7-15 15s6.7 15 15 15 15-6.7 15-15-6.7-15-15-15zM125 283.3c-13.8 0-25-11.2-25-25s11.2-25 25-25 25 11.2 25 25-11.2 25-25 25zm0-40c-8.3 0-15 6.7-15 15s6.7 15 15 15 15-6.7 15-15-6.7-15-15-15z" opacity="1" data-original="#272526"></path><path fill="#272526" d="M228.5 480.4c-34 0-62.5-5.1-84.2-11-45.6-12.5-71.2-30.8-72.3-31.6-1.8-1.3-2.6-3.8-1.7-5.9.8-2.1 3-3.4 5.3-3.1 127.2 16.1 217.9-3.3 269.4-57.6 31.1-32.8 41.5-72.6 44.7-100.3 2.6-22.7 1.1-41 .1-49H375v-10h19.1c2.4 0 4.5 1.7 4.9 4.1.2 1 4.3 24.1.6 55.7-3.4 29.2-14.3 71.4-47.4 106.3-41.7 44.1-107.4 66.2-195.7 66.2-18.5 0-37.9-1-58.3-2.9 11.8 5.9 28.4 12.9 49.2 18.5 40.5 11 105.7 19 186.1-5.7 65.2-20 106.7-65.8 123.3-136 12.5-52.7 5.4-100 5.4-100.5-.2-1.4.2-2.9 1.1-4s2.3-1.7 3.8-1.7h29.1L431 134.7l-72.2 85.5-7.6-6.5 76-90c1-1.1 2.3-1.8 3.8-1.8s2.9.6 3.8 1.8l76 90c1.3 1.5 1.5 3.6.7 5.4s-2.6 2.9-4.5 2.9h-34.2c1.5 14 4.2 54.2-6.2 98.5-7.6 32.2-20.7 60.1-38.8 82.8-22.7 28.5-53.4 48.8-91.3 60.4-40 12.3-76.4 16.7-108 16.7z" opacity="1" data-original="#272526"></path></g></svg>