<svg xmlns="http://www.w3.org/2000/svg" version="1.1" xmlns:xlink="http://www.w3.org/1999/xlink" width="512" height="512" x="0" y="0" viewBox="0 0 53 53" style="enable-background:new 0 0 512 512" xml:space="preserve"><g><path fill="#46CC6B" d="M47.298 19.948V33.42a2.062 2.062 0 0 1-2.057 2.057H15.847a2.057 2.057 0 0 1-2.057-2.057V19.948c0-1.14.918-2.057 2.057-2.057h29.394c1.132 0 2.057.917 2.057 2.057z" opacity="1" data-original="#46cc6b"></path><path fill="#34BA5D" d="M47.298 22.204v13.473a2.062 2.062 0 0 1-2.057 2.057H15.847a2.057 2.057 0 0 1-2.057-2.057V22.204c0-1.14.918-2.057 2.057-2.057h29.394c1.132 0 2.057.918 2.057 2.057z" opacity="1" data-original="#34ba5d"></path><path fill="#46CC6B" d="M47.298 24.357V37.83c0 1.14-.925 2.057-2.057 2.057H15.847a2.052 2.052 0 0 1-2.057-2.057V24.357c0-1.132.918-2.057 2.057-2.057h29.394c1.132 0 2.057.925 2.057 2.057z" opacity="1" data-original="#46cc6b"></path><path fill="#34BA5D" d="M44.678 27.852v6.495a2.921 2.921 0 0 0-2.928 2.92H19.336a2.921 2.921 0 0 0-2.928-2.92v-6.495a2.929 2.929 0 0 0 2.928-2.928H41.75a2.929 2.929 0 0 0 2.928 2.928z" opacity="1" data-original="#34ba5d"></path><circle cx="20.269" cy="31.095" r="1.341" fill="#179C5F" opacity="1" data-original="#179c5f"></circle><circle cx="40.817" cy="31.095" r="1.341" fill="#179C5F" opacity="1" data-original="#179c5f"></circle><circle cx="30.543" cy="31.096" r="4.929" fill="#179C5F" opacity="1" data-original="#179c5f"></circle><path fill="#FFFFFF" d="M32.295 33.156c-.15.227-.365.408-.642.543a2.516 2.516 0 0 1-.963.234v.563c0 .068-.023.125-.068.17s-.104.067-.178.067a.238.238 0 0 1-.17-.063.228.228 0 0 1-.068-.174v-.563a4.855 4.855 0 0 1-1.6-.373.36.36 0 0 1-.16-.13.335.335 0 0 1 .028-.428c.06-.066.139-.1.234-.1.053 0 .103.011.15.032.429.19.878.296 1.348.317v-1.823c-.935-.247-1.768-.577-1.768-1.553 0-.8.598-1.519 1.768-1.617v-.555c0-.134.096-.246.238-.246.138 0 .246.108.246.246v.547c.517.021.977.108 1.379.261.26.093.275.38.135.547-.08.094-.203.134-.357.072a3.91 3.91 0 0 0-1.157-.214v1.886c.38.09.696.188.947.293.25.106.46.263.63.472.17.209.254.485.254.828 0 .28-.076.534-.226.761zm-2.089-2.473V28.94c-.544.073-1.046.335-1.046.88 0 .54.521.727 1.046.864zm1.601 1.665a.534.534 0 0 0-.281-.48c-.188-.113-.466-.22-.836-.32v1.703c.745-.052 1.117-.354 1.117-.903z" opacity="1" data-original="#ffffff"></path><path fill="#FFAF93" d="M3.645 45.986h5.374l9.873 3.61c1.638.599 3.369.905 5.113.905h14.017a4.6 4.6 0 0 0 3.305-1.4l8.573-8.878a2.13 2.13 0 0 0-.194-3.14v-.001a2.13 2.13 0 0 0-2.562-.084l-8.198 6.17a4.6 4.6 0 0 1-2.646.837c-9.445 0-8.764.054-8.939-.125l-5.575-5.706a.416.416 0 0 1 .297-.707h6.018c3.2 0 5.793-2.594 5.793-5.793a.412.412 0 0 0-.412-.412h-15.84c-.649 0-1.295.084-1.923.251l-6.16 1.635a7.497 7.497 0 0 1-1.923.251H3.645c-.632 0-1.145.513-1.145 1.145v10.297c0 .632.513 1.145 1.145 1.145z" opacity="1" data-original="#ffaf93"></path><path fill="#EE8778" d="M49.9 40.223 41.327 49.1a4.6 4.6 0 0 1-3.305 1.401H24.005c-1.744 0-3.474-.307-5.113-.905l-9.873-3.61H3.645A1.145 1.145 0 0 1 2.5 44.84v-.01c0-.633.513-1.145 1.145-1.145h5.374l9.873 3.61c1.64.598 3.369.905 5.113.905h14.017a4.6 4.6 0 0 0 3.305-1.4c9.334-9.641 8.707-9.012 8.837-9.209a2.13 2.13 0 0 1-.264 2.63zM33.893 31.677a5.788 5.788 0 0 1-5.787 5.788h-6.014c0-.979.801-1.78 1.78-1.78h4.234c2.529 0 4.684-2.144 5.464-4.414.084.021.146.052.198.115a.378.378 0 0 1 .125.291z" opacity="1" data-original="#ee8778"></path><path fill="#FCB73E" d="M17.465 12.68h.64V6.44c0-.35.29-.64.65-.64h1.42c.35 0 .64.29.64.64v6.24h.64c.6 0 .94.69.57 1.17l-1.99 2.6c-.29.37-.86.37-1.15 0l-1.99-2.6c-.36-.48-.03-1.17.57-1.17z" opacity="1" data-original="#fcb73e"></path><path fill="#E83D62" d="M27.159 8.384h.64V3.958c0-.35.29-.64.65-.64h1.42c.35 0 .64.29.64.64v4.426h.64c.6 0 .94.69.57 1.17l-1.99 2.6c-.29.37-.86.37-1.15 0l-1.99-2.6c-.36-.48-.03-1.17.57-1.17z" opacity="1" data-original="#e83d62"></path><path fill="#FD982E" d="M20.982 13.846a.725.725 0 0 0-.57-1.17h-.64v-6.24c0-.35-.29-.64-.64-.64h1.04c.35 0 .64.29.64.64v6.24h.64c.6 0 .94.69.57 1.17l-1.99 2.6c-.27.35-.8.37-1.1.05.1-.05.313-.39 2.05-2.65z" opacity="1" data-original="#fd982e"></path><path fill="#CE2955" d="M30.676 9.556a.725.725 0 0 0-.57-1.17h-.64V3.96c0-.35-.29-.64-.64-.64h1.04c.35 0 .64.29.64.64v4.426h.64c.6 0 .94.69.57 1.17l-1.99 2.6c-.27.35-.8.37-1.1.05.02-.01.04-.03.06-.05z" opacity="1" data-original="#ce2955"></path><path fill="#65B9FF" d="M39.627 10.637h.64V7.406c0-.35.29-.64.65-.64h1.42c.35 0 .64.29.64.64v3.23h.64c.6 0 .94.69.57 1.17l-1.99 2.6c-.29.37-.86.37-1.15 0l-1.99-2.6c-.36-.48-.03-1.17.57-1.17zM42.977 4.669V2.964a.46.46 0 0 0-.46-.46h-1.79a.46.46 0 0 0-.46.46v1.705c0 .254.206.46.46.46h1.79a.46.46 0 0 0 .46-.46z" opacity="1" data-original="#65b9ff"></path><path fill="#3E7FFF" d="M41.702 2.499h.81c.26 0 .46.21.46.46v1.71c0 .25-.2.46-.46.46h-.81c.25 0 .46-.21.46-.46v-1.71c0-.25-.21-.46-.46-.46zM43.147 11.807a.725.725 0 0 0-.57-1.17h-.64V7.406c0-.35-.29-.64-.64-.64h1.04c.35 0 .64.29.64.64v3.231h.64c.6 0 .94.69.57 1.17l-1.99 2.6c-.27.35-.8.37-1.1.05.1-.05.312-.39 2.05-2.65z" opacity="1" data-original="#3e7fff"></path></g></svg>